<svg id="svg" version="1.1" width="400" height="314.3333333333333" viewBox="0 0 400 314.3333333333333" xmlns="http://www.w3.org/2000/svg" xmlns:xlink="http://www.w3.org/1999/xlink" ><g id="svgg"><path id="path0" d="M234.025 0.475 C 225.767 1.412,215.867 3.572,212.469 5.180 C 211.545 5.617,210.649 5.975,210.479 5.975 C 209.758 5.975,202.834 8.918,200.194 10.347 C 195.380 12.952,191.552 15.220,190.482 16.100 C 189.923 16.561,188.658 17.478,187.672 18.138 C 183.447 20.969,176.063 28.307,173.649 32.075 C 173.040 33.027,172.239 34.114,171.870 34.491 C 171.070 35.308,167.942 41.047,167.145 43.160 C 166.835 43.982,166.475 44.654,166.346 44.654 C 166.217 44.654,166.035 44.902,165.941 45.204 C 165.848 45.507,165.283 47.172,164.686 48.905 C 160.182 61.970,160.755 69.586,166.352 71.068 C 167.131 71.274,168.013 71.571,168.313 71.728 C 169.087 72.131,207.140 72.103,207.390 71.698 C 207.497 71.525,207.902 71.384,208.290 71.384 C 211.211 71.384,212.839 69.390,214.766 63.452 C 215.481 61.252,216.236 59.269,216.445 59.045 C 216.653 58.822,217.656 57.396,218.672 55.876 C 219.689 54.356,221.080 52.660,221.762 52.107 C 222.445 51.553,223.722 50.504,224.600 49.774 C 226.505 48.191,230.086 46.295,233.333 45.148 C 234.631 44.690,236.116 44.122,236.635 43.885 C 241.346 41.732,259.715 41.809,262.388 43.993 C 262.579 44.149,263.868 44.717,265.252 45.253 C 274.176 48.716,282.704 58.767,282.704 65.821 C 282.704 66.217,282.834 66.675,282.991 66.840 C 284.183 68.081,284.219 84.176,283.033 85.692 C 282.897 85.865,282.605 86.779,282.384 87.723 C 280.117 97.383,272.860 105.429,263.365 108.809 C 261.808 109.363,260.304 109.934,260.021 110.077 C 258.243 110.977,249.707 111.944,243.429 111.956 C 233.633 111.974,226.740 115.577,223.270 122.492 C 222.665 123.698,222.089 124.756,221.990 124.843 C 220.851 125.838,220.144 133.325,220.868 136.730 C 222.984 146.681,230.446 152.400,242.296 153.154 C 252.746 153.819,256.721 154.153,257.201 154.409 C 257.478 154.557,258.978 154.896,260.535 155.163 C 264.798 155.895,272.728 158.837,273.571 160.000 C 273.742 160.235,276.359 162.270,277.762 163.258 C 279.044 164.161,283.401 170.490,284.524 173.079 C 289.373 184.262,289.066 202.160,283.877 210.753 C 282.382 213.229,279.597 216.874,278.398 217.925 C 273.896 221.867,273.067 222.366,265.409 225.733 C 257.289 229.303,241.361 229.335,233.496 225.796 C 232.801 225.483,231.153 224.781,229.832 224.235 C 220.806 220.503,213.291 211.876,211.469 203.155 C 211.343 202.555,211.129 201.848,210.991 201.583 C 210.854 201.318,210.431 200.287,210.052 199.293 C 208.327 194.776,208.749 194.849,184.270 194.829 L 163.980 194.811 161.882 195.844 C 158.345 197.586,157.466 200.319,158.317 206.926 C 158.831 210.916,160.175 217.130,160.657 217.744 C 160.803 217.930,161.244 219.072,161.637 220.283 C 163.004 224.500,165.284 229.704,166.136 230.557 C 166.375 230.795,166.805 231.482,167.092 232.083 C 167.379 232.684,168.593 234.660,169.790 236.475 C 170.988 238.289,171.940 239.800,171.906 239.834 C 171.873 239.868,167.461 240.408,162.102 241.034 C 156.743 241.660,152.075 242.294,151.730 242.442 C 150.674 242.893,141.798 243.811,141.488 243.500 C 141.320 243.333,141.170 195.021,141.121 125.618 C 141.026 -7.886,141.339 5.979,138.357 3.087 C 135.955 0.758,133.408 0.379,129.065 1.704 C 125.444 2.809,120.026 4.723,119.657 5.027 C 119.483 5.171,118.420 5.596,117.296 5.971 C 111.487 7.910,104.207 10.493,103.920 10.716 C 103.742 10.856,100.275 12.123,96.216 13.532 C 92.157 14.941,88.695 16.202,88.522 16.335 C 88.349 16.469,87.500 16.821,86.635 17.119 C 85.770 17.416,82.587 18.511,79.561 19.550 C 76.534 20.590,73.987 21.544,73.900 21.669 C 73.813 21.794,70.487 23.001,66.509 24.351 C 62.531 25.702,58.987 26.986,58.634 27.204 C 58.280 27.423,56.342 28.170,54.325 28.864 C 45.571 31.875,45.916 30.963,45.914 51.122 C 45.912 69.391,46.205 70.849,50.226 72.532 C 52.164 73.344,58.134 72.819,59.591 71.709 C 59.764 71.577,63.656 70.362,68.239 69.009 C 72.822 67.656,76.619 66.434,76.677 66.293 C 76.735 66.153,76.965 66.038,77.189 66.038 C 77.413 66.038,78.922 65.634,80.543 65.140 C 84.717 63.869,85.419 63.766,85.994 64.341 C 86.428 64.774,86.478 74.829,86.478 160.739 L 86.478 256.653 85.299 257.830 C 84.420 258.707,83.439 259.231,81.447 259.887 C 77.440 261.207,69.362 264.204,69.182 264.437 C 69.096 264.549,66.761 265.546,63.994 266.651 C 61.226 267.757,57.618 269.335,55.975 270.158 C 54.332 270.981,51.219 272.508,49.057 273.551 C 43.598 276.186,34.817 280.769,34.608 281.093 C 34.512 281.241,33.797 281.684,33.019 282.078 C 30.871 283.166,25.650 286.205,25.472 286.472 C 25.385 286.602,23.899 287.521,22.170 288.515 C 20.440 289.510,17.635 291.236,15.935 292.351 C 14.236 293.466,11.787 295.004,10.493 295.769 C 9.200 296.534,7.928 297.373,7.666 297.635 C 7.405 297.896,6.246 298.665,5.089 299.343 C -1.544 303.235,-1.841 312.038,4.589 314.161 C 6.901 314.924,29.986 310.791,34.434 308.818 C 35.397 308.390,43.748 306.605,53.616 304.716 C 56.384 304.187,58.931 303.623,59.277 303.464 C 60.148 303.063,70.937 301.210,82.390 299.493 C 87.665 298.703,92.264 297.938,92.610 297.794 C 93.819 297.290,114.112 294.894,127.044 293.729 C 130.936 293.378,135.535 292.943,137.264 292.762 C 159.421 290.444,209.735 289.466,235.377 290.855 C 250.887 291.695,258.386 292.200,258.962 292.443 C 259.308 292.590,261.785 292.869,264.465 293.064 C 276.926 293.969,305.618 297.150,307.075 297.787 C 307.421 297.938,309.898 298.363,312.579 298.731 C 323.428 300.219,340.664 303.147,340.828 303.530 C 340.886 303.664,341.182 303.774,341.486 303.774 C 342.755 303.774,365.158 308.331,366.195 308.800 C 368.119 309.670,390.460 314.465,392.561 314.459 C 401.665 314.431,402.937 304.208,394.500 298.874 C 393.465 298.219,392.359 297.443,392.044 297.149 C 391.729 296.856,389.958 295.674,388.110 294.523 C 386.261 293.373,383.546 291.652,382.075 290.700 C 380.605 289.748,378.605 288.556,377.631 288.052 C 376.656 287.547,375.648 286.924,375.391 286.667 C 374.939 286.214,374.247 285.819,368.553 282.762 C 367.083 281.972,365.807 281.221,365.718 281.093 C 365.629 280.965,363.364 279.774,360.687 278.446 C 358.009 277.118,355.333 275.738,354.741 275.378 C 353.559 274.660,345.575 270.890,344.543 270.562 C 344.188 270.449,343.726 270.186,343.517 269.977 C 343.308 269.768,340.967 268.714,338.314 267.635 C 331.025 264.671,330.986 264.654,330.818 264.441 C 330.643 264.220,326.404 262.608,320.440 260.495 C 318.278 259.729,315.943 258.843,315.252 258.527 C 314.560 258.210,312.790 257.571,311.319 257.108 C 307.875 256.022,307.532 255.818,308.243 255.280 C 308.537 255.057,309.244 254.485,309.813 254.008 C 310.383 253.532,312.052 252.263,313.522 251.188 C 316.618 248.925,324.101 241.591,326.126 238.836 C 326.888 237.799,327.588 236.879,327.682 236.792 C 328.297 236.221,330.320 233.052,331.597 230.660 C 332.427 229.104,333.276 227.618,333.483 227.358 C 334.449 226.146,337.168 218.720,338.203 214.465 C 338.477 213.341,338.830 212.138,338.988 211.792 C 340.470 208.548,341.386 192.868,340.559 184.906 C 340.155 181.017,339.387 176.548,339.003 175.859 C 338.836 175.559,338.398 174.182,338.029 172.799 C 336.886 168.513,334.108 161.533,333.334 161.006 C 333.207 160.920,332.781 160.212,332.387 159.434 C 330.245 155.203,324.927 148.682,320.848 145.285 C 319.500 144.162,318.255 143.083,318.082 142.887 C 317.678 142.428,312.409 138.929,311.136 138.273 C 304.674 134.943,304.505 127.648,310.797 123.676 C 317.502 119.443,328.688 105.722,331.764 97.956 C 332.312 96.572,333.050 94.803,333.405 94.025 C 337.506 85.026,337.552 60.247,333.486 51.101 C 333.255 50.582,332.548 48.611,331.913 46.722 C 330.067 41.222,325.365 32.509,322.737 29.717 C 322.248 29.198,321.167 27.901,320.333 26.835 C 318.633 24.661,312.775 19.199,310.849 17.993 C 310.157 17.560,309.096 16.764,308.491 16.225 C 307.885 15.686,305.904 14.415,304.088 13.399 C 302.272 12.384,300.141 11.170,299.352 10.701 C 297.570 9.641,291.153 6.918,288.208 5.970 C 286.997 5.581,285.865 5.152,285.692 5.016 C 284.422 4.024,273.577 1.780,265.094 0.754 C 259.183 0.039,239.431 -0.138,234.025 0.475 " stroke="none" fill="#ffffff" fill-rule="evenodd"></path><path id="path1" d="M234.025 0.475 C 225.767 1.412,215.867 3.572,212.469 5.180 C 211.545 5.617,210.649 5.975,210.479 5.975 C 209.758 5.975,202.834 8.918,200.194 10.347 C 195.380 12.952,191.552 15.220,190.482 16.100 C 189.923 16.561,188.658 17.478,187.672 18.138 C 183.447 20.969,176.063 28.307,173.649 32.075 C 173.040 33.027,172.239 34.114,171.870 34.491 C 171.070 35.308,167.942 41.047,167.145 43.160 C 166.835 43.982,166.475 44.654,166.346 44.654 C 166.217 44.654,166.035 44.902,165.941 45.204 C 165.848 45.507,165.283 47.172,164.686 48.905 C 160.182 61.970,160.755 69.586,166.352 71.068 C 167.131 71.274,168.013 71.571,168.313 71.728 C 169.087 72.131,207.140 72.103,207.390 71.698 C 207.497 71.525,207.902 71.384,208.290 71.384 C 211.211 71.384,212.839 69.390,214.766 63.452 C 215.481 61.252,216.236 59.269,216.445 59.045 C 216.653 58.822,217.656 57.396,218.672 55.876 C 219.689 54.356,221.080 52.660,221.762 52.107 C 222.445 51.553,223.722 50.504,224.600 49.774 C 226.505 48.191,230.086 46.295,233.333 45.148 C 234.631 44.690,236.116 44.122,236.635 43.885 C 241.346 41.732,259.715 41.809,262.388 43.993 C 262.579 44.149,263.868 44.717,265.252 45.253 C 274.176 48.716,282.704 58.767,282.704 65.821 C 282.704 66.217,282.834 66.675,282.991 66.840 C 284.183 68.081,284.219 84.176,283.033 85.692 C 282.897 85.865,282.605 86.779,282.384 87.723 C 280.117 97.383,272.860 105.429,263.365 108.809 C 261.808 109.363,260.304 109.934,260.021 110.077 C 258.243 110.977,249.707 111.944,243.429 111.956 C 233.633 111.974,226.740 115.577,223.270 122.492 C 222.665 123.698,222.089 124.756,221.990 124.843 C 220.851 125.838,220.144 133.325,220.868 136.730 C 222.984 146.681,230.446 152.400,242.296 153.154 C 252.746 153.819,256.721 154.153,257.201 154.409 C 257.478 154.557,258.978 154.896,260.535 155.163 C 264.798 155.895,272.728 158.837,273.571 160.000 C 273.742 160.235,276.359 162.270,277.762 163.258 C 279.044 164.161,283.401 170.490,284.524 173.079 C 289.373 184.262,289.066 202.160,283.877 210.753 C 282.382 213.229,279.597 216.874,278.398 217.925 C 273.896 221.867,273.067 222.366,265.409 225.733 C 257.289 229.303,241.361 229.335,233.496 225.796 C 232.801 225.483,231.153 224.781,229.832 224.235 C 220.806 220.503,213.291 211.876,211.469 203.155 C 211.343 202.555,211.129 201.848,210.991 201.583 C 210.854 201.318,210.431 200.287,210.052 199.293 C 208.327 194.776,208.749 194.849,184.270 194.829 L 163.980 194.811 161.882 195.844 C 158.345 197.586,157.466 200.319,158.317 206.926 C 158.831 210.916,160.175 217.130,160.657 217.744 C 160.803 217.930,161.244 219.072,161.637 220.283 C 163.004 224.500,165.284 229.704,166.136 230.557 C 166.375 230.795,166.805 231.482,167.092 232.083 C 167.379 232.684,168.593 234.660,169.790 236.475 C 170.988 238.289,171.940 239.800,171.906 239.834 C 171.873 239.868,167.461 240.408,162.102 241.034 C 156.743 241.660,152.075 242.294,151.730 242.442 C 150.674 242.893,141.798 243.811,141.488 243.500 C 141.320 243.333,141.170 195.021,141.121 125.618 C 141.026 -7.886,141.339 5.979,138.357 3.087 C 135.955 0.758,133.408 0.379,129.065 1.704 C 125.444 2.809,120.026 4.723,119.657 5.027 C 119.483 5.171,118.420 5.596,117.296 5.971 C 111.487 7.910,104.207 10.493,103.920 10.716 C 103.742 10.856,100.275 12.123,96.216 13.532 C 92.157 14.941,88.695 16.202,88.522 16.335 C 88.349 16.469,87.500 16.821,86.635 17.119 C 85.770 17.416,82.587 18.511,79.561 19.550 C 76.534 20.590,73.987 21.544,73.900 21.669 C 73.813 21.794,70.487 23.001,66.509 24.351 C 62.531 25.702,58.987 26.986,58.634 27.204 C 58.280 27.423,56.342 28.170,54.325 28.864 C 45.571 31.875,45.916 30.963,45.914 51.122 C 45.912 69.391,46.205 70.849,50.226 72.532 C 52.164 73.344,58.134 72.819,59.591 71.709 C 59.764 71.577,63.656 70.362,68.239 69.009 C 72.822 67.656,76.619 66.434,76.677 66.293 C 76.735 66.153,76.965 66.038,77.189 66.038 C 77.413 66.038,78.922 65.634,80.543 65.140 C 84.717 63.869,85.419 63.766,85.994 64.341 C 86.428 64.774,86.478 74.829,86.478 160.739 L 86.478 256.653 85.299 257.830 C 84.420 258.707,83.439 259.231,81.447 259.887 C 77.440 261.207,69.362 264.204,69.182 264.437 C 69.096 264.549,66.761 265.546,63.994 266.651 C 61.226 267.757,57.618 269.335,55.975 270.158 C 54.332 270.981,51.219 272.508,49.057 273.551 C 43.598 276.186,34.817 280.769,34.608 281.093 C 34.512 281.241,33.797 281.684,33.019 282.078 C 30.871 283.166,25.650 286.205,25.472 286.472 C 25.385 286.602,23.899 287.521,22.170 288.515 C 20.440 289.510,17.635 291.236,15.935 292.351 C 14.236 293.466,11.787 295.004,10.493 295.769 C 9.200 296.534,7.928 297.373,7.666 297.635 C 7.405 297.896,6.246 298.665,5.089 299.343 C -1.544 303.235,-1.841 312.038,4.589 314.161 C 6.901 314.924,29.986 310.791,34.434 308.818 C 35.397 308.390,43.748 306.605,53.616 304.716 C 56.384 304.187,58.931 303.623,59.277 303.464 C 60.148 303.063,70.937 301.210,82.390 299.493 C 87.665 298.703,92.264 297.938,92.610 297.794 C 93.819 297.290,114.112 294.894,127.044 293.729 C 130.936 293.378,135.535 292.943,137.264 292.762 C 159.421 290.444,209.735 289.466,235.377 290.855 C 250.887 291.695,258.386 292.200,258.962 292.443 C 259.308 292.590,261.785 292.869,264.465 293.064 C 276.926 293.969,305.618 297.150,307.075 297.787 C 307.421 297.938,309.898 298.363,312.579 298.731 C 323.428 300.219,340.664 303.147,340.828 303.530 C 340.886 303.664,341.182 303.774,341.486 303.774 C 342.755 303.774,365.158 308.331,366.195 308.800 C 368.119 309.670,390.460 314.465,392.561 314.459 C 401.665 314.431,402.937 304.208,394.500 298.874 C 393.465 298.219,392.359 297.443,392.044 297.149 C 391.729 296.856,389.958 295.674,388.110 294.523 C 386.261 293.373,383.546 291.652,382.075 290.700 C 380.605 289.748,378.605 288.556,377.631 288.052 C 376.656 287.547,375.648 286.924,375.391 286.667 C 374.939 286.214,374.247 285.819,368.553 282.762 C 367.083 281.972,365.807 281.221,365.718 281.093 C 365.629 280.965,363.364 279.774,360.687 278.446 C 358.009 277.118,355.333 275.738,354.741 275.378 C 353.559 274.660,345.575 270.890,344.543 270.562 C 344.188 270.449,343.726 270.186,343.517 269.977 C 343.308 269.768,340.967 268.714,338.314 267.635 C 331.025 264.671,330.986 264.654,330.818 264.441 C 330.643 264.220,326.404 262.608,320.440 260.495 C 318.278 259.729,315.943 258.843,315.252 258.527 C 314.560 258.210,312.790 257.571,311.319 257.108 C 307.875 256.022,307.532 255.818,308.243 255.280 C 308.537 255.057,309.244 254.485,309.813 254.008 C 310.383 253.532,312.052 252.263,313.522 251.188 C 316.618 248.925,324.101 241.591,326.126 238.836 C 326.888 237.799,327.588 236.879,327.682 236.792 C 328.297 236.221,330.320 233.052,331.597 230.660 C 332.427 229.104,333.276 227.618,333.483 227.358 C 334.449 226.146,337.168 218.720,338.203 214.465 C 338.477 213.341,338.830 212.138,338.988 211.792 C 340.470 208.548,341.386 192.868,340.559 184.906 C 340.155 181.017,339.387 176.548,339.003 175.859 C 338.836 175.559,338.398 174.182,338.029 172.799 C 336.886 168.513,334.108 161.533,333.334 161.006 C 333.207 160.920,332.781 160.212,332.387 159.434 C 330.245 155.203,324.927 148.682,320.848 145.285 C 319.500 144.162,318.255 143.083,318.082 142.887 C 317.678 142.428,312.409 138.929,311.136 138.273 C 304.674 134.943,304.505 127.648,310.797 123.676 C 317.502 119.443,328.688 105.722,331.764 97.956 C 332.312 96.572,333.050 94.803,333.405 94.025 C 337.506 85.026,337.552 60.247,333.486 51.101 C 333.255 50.582,332.548 48.611,331.913 46.722 C 330.067 41.222,325.365 32.509,322.737 29.717 C 322.248 29.198,321.167 27.901,320.333 26.835 C 318.633 24.661,312.775 19.199,310.849 17.993 C 310.157 17.560,309.096 16.764,308.491 16.225 C 307.885 15.686,305.904 14.415,304.088 13.399 C 302.272 12.384,300.141 11.170,299.352 10.701 C 297.570 9.641,291.153 6.918,288.208 5.970 C 286.997 5.581,285.865 5.152,285.692 5.016 C 284.422 4.024,273.577 1.780,265.094 0.754 C 259.183 0.039,239.431 -0.138,234.025 0.475 " stroke="none" fill="#ffffff" fill-rule="evenodd"></path><path id="path2" d="M234.025 0.475 C 225.767 1.412,215.867 3.572,212.469 5.180 C 211.545 5.617,210.649 5.975,210.479 5.975 C 209.758 5.975,202.834 8.918,200.194 10.347 C 195.380 12.952,191.552 15.220,190.482 16.100 C 189.923 16.561,188.658 17.478,187.672 18.138 C 183.447 20.969,176.063 28.307,173.649 32.075 C 173.040 33.027,172.239 34.114,171.870 34.491 C 171.070 35.308,167.942 41.047,167.145 43.160 C 166.835 43.982,166.475 44.654,166.346 44.654 C 166.217 44.654,166.035 44.902,165.941 45.204 C 165.848 45.507,165.283 47.172,164.686 48.905 C 160.182 61.970,160.755 69.586,166.352 71.068 C 167.131 71.274,168.013 71.571,168.313 71.728 C 169.087 72.131,207.140 72.103,207.390 71.698 C 207.497 71.525,207.902 71.384,208.290 71.384 C 211.211 71.384,212.839 69.390,214.766 63.452 C 215.481 61.252,216.236 59.269,216.445 59.045 C 216.653 58.822,217.656 57.396,218.672 55.876 C 219.689 54.356,221.080 52.660,221.762 52.107 C 222.445 51.553,223.722 50.504,224.600 49.774 C 226.505 48.191,230.086 46.295,233.333 45.148 C 234.631 44.690,236.116 44.122,236.635 43.885 C 241.346 41.732,259.715 41.809,262.388 43.993 C 262.579 44.149,263.868 44.717,265.252 45.253 C 274.176 48.716,282.704 58.767,282.704 65.821 C 282.704 66.217,282.834 66.675,282.991 66.840 C 284.183 68.081,284.219 84.176,283.033 85.692 C 282.897 85.865,282.605 86.779,282.384 87.723 C 280.117 97.383,272.860 105.429,263.365 108.809 C 261.808 109.363,260.304 109.934,260.021 110.077 C 258.243 110.977,249.707 111.944,243.429 111.956 C 233.633 111.974,226.740 115.577,223.270 122.492 C 222.665 123.698,222.089 124.756,221.990 124.843 C 220.851 125.838,220.144 133.325,220.868 136.730 C 222.984 146.681,230.446 152.400,242.296 153.154 C 252.746 153.819,256.721 154.153,257.201 154.409 C 257.478 154.557,258.978 154.896,260.535 155.163 C 264.798 155.895,272.728 158.837,273.571 160.000 C 273.742 160.235,276.359 162.270,277.762 163.258 C 279.044 164.161,283.401 170.490,284.524 173.079 C 289.373 184.262,289.066 202.160,283.877 210.753 C 282.382 213.229,279.597 216.874,278.398 217.925 C 273.896 221.867,273.067 222.366,265.409 225.733 C 257.289 229.303,241.361 229.335,233.496 225.796 C 232.801 225.483,231.153 224.781,229.832 224.235 C 220.806 220.503,213.291 211.876,211.469 203.155 C 211.343 202.555,211.129 201.848,210.991 201.583 C 210.854 201.318,210.431 200.287,210.052 199.293 C 208.327 194.776,208.749 194.849,184.270 194.829 L 163.980 194.811 161.882 195.844 C 158.345 197.586,157.466 200.319,158.317 206.926 C 158.831 210.916,160.175 217.130,160.657 217.744 C 160.803 217.930,161.244 219.072,161.637 220.283 C 163.004 224.500,165.284 229.704,166.136 230.557 C 166.375 230.795,166.805 231.482,167.092 232.083 C 167.379 232.684,168.593 234.660,169.790 236.475 C 170.988 238.289,171.940 239.800,171.906 239.834 C 171.873 239.868,167.461 240.408,162.102 241.034 C 156.743 241.660,152.075 242.294,151.730 242.442 C 150.674 242.893,141.798 243.811,141.488 243.500 C 141.320 243.333,141.170 195.021,141.121 125.618 C 141.026 -7.886,141.339 5.979,138.357 3.087 C 135.955 0.758,133.408 0.379,129.065 1.704 C 125.444 2.809,120.026 4.723,119.657 5.027 C 119.483 5.171,118.420 5.596,117.296 5.971 C 111.487 7.910,104.207 10.493,103.920 10.716 C 103.742 10.856,100.275 12.123,96.216 13.532 C 92.157 14.941,88.695 16.202,88.522 16.335 C 88.349 16.469,87.500 16.821,86.635 17.119 C 85.770 17.416,82.587 18.511,79.561 19.550 C 76.534 20.590,73.987 21.544,73.900 21.669 C 73.813 21.794,70.487 23.001,66.509 24.351 C 62.531 25.702,58.987 26.986,58.634 27.204 C 58.280 27.423,56.342 28.170,54.325 28.864 C 45.571 31.875,45.916 30.963,45.914 51.122 C 45.912 69.391,46.205 70.849,50.226 72.532 C 52.164 73.344,58.134 72.819,59.591 71.709 C 59.764 71.577,63.656 70.362,68.239 69.009 C 72.822 67.656,76.619 66.434,76.677 66.293 C 76.735 66.153,76.965 66.038,77.189 66.038 C 77.413 66.038,78.922 65.634,80.543 65.140 C 84.717 63.869,85.419 63.766,85.994 64.341 C 86.428 64.774,86.478 74.829,86.478 160.739 L 86.478 256.653 85.299 257.830 C 84.420 258.707,83.439 259.231,81.447 259.887 C 77.440 261.207,69.362 264.204,69.182 264.437 C 69.096 264.549,66.761 265.546,63.994 266.651 C 61.226 267.757,57.618 269.335,55.975 270.158 C 54.332 270.981,51.219 272.508,49.057 273.551 C 43.598 276.186,34.817 280.769,34.608 281.093 C 34.512 281.241,33.797 281.684,33.019 282.078 C 30.871 283.166,25.650 286.205,25.472 286.472 C 25.385 286.602,23.899 287.521,22.170 288.515 C 20.440 289.510,17.635 291.236,15.935 292.351 C 14.236 293.466,11.787 295.004,10.493 295.769 C 9.200 296.534,7.928 297.373,7.666 297.635 C 7.405 297.896,6.246 298.665,5.089 299.343 C -1.544 303.235,-1.841 312.038,4.589 314.161 C 6.901 314.924,29.986 310.791,34.434 308.818 C 35.397 308.390,43.748 306.605,53.616 304.716 C 56.384 304.187,58.931 303.623,59.277 303.464 C 60.148 303.063,70.937 301.210,82.390 299.493 C 87.665 298.703,92.264 297.938,92.610 297.794 C 93.819 297.290,114.112 294.894,127.044 293.729 C 130.936 293.378,135.535 292.943,137.264 292.762 C 159.421 290.444,209.735 289.466,235.377 290.855 C 250.887 291.695,258.386 292.200,258.962 292.443 C 259.308 292.590,261.785 292.869,264.465 293.064 C 276.926 293.969,305.618 297.150,307.075 297.787 C 307.421 297.938,309.898 298.363,312.579 298.731 C 323.428 300.219,340.664 303.147,340.828 303.530 C 340.886 303.664,341.182 303.774,341.486 303.774 C 342.755 303.774,365.158 308.331,366.195 308.800 C 368.119 309.670,390.460 314.465,392.561 314.459 C 401.665 314.431,402.937 304.208,394.500 298.874 C 393.465 298.219,392.359 297.443,392.044 297.149 C 391.729 296.856,389.958 295.674,388.110 294.523 C 386.261 293.373,383.546 291.652,382.075 290.700 C 380.605 289.748,378.605 288.556,377.631 288.052 C 376.656 287.547,375.648 286.924,375.391 286.667 C 374.939 286.214,374.247 285.819,368.553 282.762 C 367.083 281.972,365.807 281.221,365.718 281.093 C 365.629 280.965,363.364 279.774,360.687 278.446 C 358.009 277.118,355.333 275.738,354.741 275.378 C 353.559 274.660,345.575 270.890,344.543 270.562 C 344.188 270.449,343.726 270.186,343.517 269.977 C 343.308 269.768,340.967 268.714,338.314 267.635 C 331.025 264.671,330.986 264.654,330.818 264.441 C 330.643 264.220,326.404 262.608,320.440 260.495 C 318.278 259.729,315.943 258.843,315.252 258.527 C 314.560 258.210,312.790 257.571,311.319 257.108 C 307.875 256.022,307.532 255.818,308.243 255.280 C 308.537 255.057,309.244 254.485,309.813 254.008 C 310.383 253.532,312.052 252.263,313.522 251.188 C 316.618 248.925,324.101 241.591,326.126 238.836 C 326.888 237.799,327.588 236.879,327.682 236.792 C 328.297 236.221,330.320 233.052,331.597 230.660 C 332.427 229.104,333.276 227.618,333.483 227.358 C 334.449 226.146,337.168 218.720,338.203 214.465 C 338.477 213.341,338.830 212.138,338.988 211.792 C 340.470 208.548,341.386 192.868,340.559 184.906 C 340.155 181.017,339.387 176.548,339.003 175.859 C 338.836 175.559,338.398 174.182,338.029 172.799 C 336.886 168.513,334.108 161.533,333.334 161.006 C 333.207 160.920,332.781 160.212,332.387 159.434 C 330.245 155.203,324.927 148.682,320.848 145.285 C 319.500 144.162,318.255 143.083,318.082 142.887 C 317.678 142.428,312.409 138.929,311.136 138.273 C 304.674 134.943,304.505 127.648,310.797 123.676 C 317.502 119.443,328.688 105.722,331.764 97.956 C 332.312 96.572,333.050 94.803,333.405 94.025 C 337.506 85.026,337.552 60.247,333.486 51.101 C 333.255 50.582,332.548 48.611,331.913 46.722 C 330.067 41.222,325.365 32.509,322.737 29.717 C 322.248 29.198,321.167 27.901,320.333 26.835 C 318.633 24.661,312.775 19.199,310.849 17.993 C 310.157 17.560,309.096 16.764,308.491 16.225 C 307.885 15.686,305.904 14.415,304.088 13.399 C 302.272 12.384,300.141 11.170,299.352 10.701 C 297.570 9.641,291.153 6.918,288.208 5.970 C 286.997 5.581,285.865 5.152,285.692 5.016 C 284.422 4.024,273.577 1.780,265.094 0.754 C 259.183 0.039,239.431 -0.138,234.025 0.475 " stroke="none" fill="#ffffff" fill-rule="evenodd"></path><path id="path3" d="M234.025 0.475 C 225.767 1.412,215.867 3.572,212.469 5.180 C 211.545 5.617,210.649 5.975,210.479 5.975 C 209.758 5.975,202.834 8.918,200.194 10.347 C 195.380 12.952,191.552 15.220,190.482 16.100 C 189.923 16.561,188.658 17.478,187.672 18.138 C 183.447 20.969,176.063 28.307,173.649 32.075 C 173.040 33.027,172.239 34.114,171.870 34.491 C 171.070 35.308,167.942 41.047,167.145 43.160 C 166.835 43.982,166.475 44.654,166.346 44.654 C 166.217 44.654,166.035 44.902,165.941 45.204 C 165.848 45.507,165.283 47.172,164.686 48.905 C 160.182 61.970,160.755 69.586,166.352 71.068 C 167.131 71.274,168.013 71.571,168.313 71.728 C 169.087 72.131,207.140 72.103,207.390 71.698 C 207.497 71.525,207.902 71.384,208.290 71.384 C 211.211 71.384,212.839 69.390,214.766 63.452 C 215.481 61.252,216.236 59.269,216.445 59.045 C 216.653 58.822,217.656 57.396,218.672 55.876 C 219.689 54.356,221.080 52.660,221.762 52.107 C 222.445 51.553,223.722 50.504,224.600 49.774 C 226.505 48.191,230.086 46.295,233.333 45.148 C 234.631 44.690,236.116 44.122,236.635 43.885 C 241.346 41.732,259.715 41.809,262.388 43.993 C 262.579 44.149,263.868 44.717,265.252 45.253 C 274.176 48.716,282.704 58.767,282.704 65.821 C 282.704 66.217,282.834 66.675,282.991 66.840 C 284.183 68.081,284.219 84.176,283.033 85.692 C 282.897 85.865,282.605 86.779,282.384 87.723 C 280.117 97.383,272.860 105.429,263.365 108.809 C 261.808 109.363,260.304 109.934,260.021 110.077 C 258.243 110.977,249.707 111.944,243.429 111.956 C 233.633 111.974,226.740 115.577,223.270 122.492 C 222.665 123.698,222.089 124.756,221.990 124.843 C 220.851 125.838,220.144 133.325,220.868 136.730 C 222.984 146.681,230.446 152.400,242.296 153.154 C 252.746 153.819,256.721 154.153,257.201 154.409 C 257.478 154.557,258.978 154.896,260.535 155.163 C 264.798 155.895,272.728 158.837,273.571 160.000 C 273.742 160.235,276.359 162.270,277.762 163.258 C 279.044 164.161,283.401 170.490,284.524 173.079 C 289.373 184.262,289.066 202.160,283.877 210.753 C 282.382 213.229,279.597 216.874,278.398 217.925 C 273.896 221.867,273.067 222.366,265.409 225.733 C 257.289 229.303,241.361 229.335,233.496 225.796 C 232.801 225.483,231.153 224.781,229.832 224.235 C 220.806 220.503,213.291 211.876,211.469 203.155 C 211.343 202.555,211.129 201.848,210.991 201.583 C 210.854 201.318,210.431 200.287,210.052 199.293 C 208.327 194.776,208.749 194.849,184.270 194.829 L 163.980 194.811 161.882 195.844 C 158.345 197.586,157.466 200.319,158.317 206.926 C 158.831 210.916,160.175 217.130,160.657 217.744 C 160.803 217.930,161.244 219.072,161.637 220.283 C 163.004 224.500,165.284 229.704,166.136 230.557 C 166.375 230.795,166.805 231.482,167.092 232.083 C 167.379 232.684,168.593 234.660,169.790 236.475 C 170.988 238.289,171.940 239.800,171.906 239.834 C 171.873 239.868,167.461 240.408,162.102 241.034 C 156.743 241.660,152.075 242.294,151.730 242.442 C 150.674 242.893,141.798 243.811,141.488 243.500 C 141.320 243.333,141.170 195.021,141.121 125.618 C 141.026 -7.886,141.339 5.979,138.357 3.087 C 135.955 0.758,133.408 0.379,129.065 1.704 C 125.444 2.809,120.026 4.723,119.657 5.027 C 119.483 5.171,118.420 5.596,117.296 5.971 C 111.487 7.910,104.207 10.493,103.920 10.716 C 103.742 10.856,100.275 12.123,96.216 13.532 C 92.157 14.941,88.695 16.202,88.522 16.335 C 88.349 16.469,87.500 16.821,86.635 17.119 C 85.770 17.416,82.587 18.511,79.561 19.550 C 76.534 20.590,73.987 21.544,73.900 21.669 C 73.813 21.794,70.487 23.001,66.509 24.351 C 62.531 25.702,58.987 26.986,58.634 27.204 C 58.280 27.423,56.342 28.170,54.325 28.864 C 45.571 31.875,45.916 30.963,45.914 51.122 C 45.912 69.391,46.205 70.849,50.226 72.532 C 52.164 73.344,58.134 72.819,59.591 71.709 C 59.764 71.577,63.656 70.362,68.239 69.009 C 72.822 67.656,76.619 66.434,76.677 66.293 C 76.735 66.153,76.965 66.038,77.189 66.038 C 77.413 66.038,78.922 65.634,80.543 65.140 C 84.717 63.869,85.419 63.766,85.994 64.341 C 86.428 64.774,86.478 74.829,86.478 160.739 L 86.478 256.653 85.299 257.830 C 84.420 258.707,83.439 259.231,81.447 259.887 C 77.440 261.207,69.362 264.204,69.182 264.437 C 69.096 264.549,66.761 265.546,63.994 266.651 C 61.226 267.757,57.618 269.335,55.975 270.158 C 54.332 270.981,51.219 272.508,49.057 273.551 C 43.598 276.186,34.817 280.769,34.608 281.093 C 34.512 281.241,33.797 281.684,33.019 282.078 C 30.871 283.166,25.650 286.205,25.472 286.472 C 25.385 286.602,23.899 287.521,22.170 288.515 C 20.440 289.510,17.635 291.236,15.935 292.351 C 14.236 293.466,11.787 295.004,10.493 295.769 C 9.200 296.534,7.928 297.373,7.666 297.635 C 7.405 297.896,6.246 298.665,5.089 299.343 C -1.544 303.235,-1.841 312.038,4.589 314.161 C 6.901 314.924,29.986 310.791,34.434 308.818 C 35.397 308.390,43.748 306.605,53.616 304.716 C 56.384 304.187,58.931 303.623,59.277 303.464 C 60.148 303.063,70.937 301.210,82.390 299.493 C 87.665 298.703,92.264 297.938,92.610 297.794 C 93.819 297.290,114.112 294.894,127.044 293.729 C 130.936 293.378,135.535 292.943,137.264 292.762 C 159.421 290.444,209.735 289.466,235.377 290.855 C 250.887 291.695,258.386 292.200,258.962 292.443 C 259.308 292.590,261.785 292.869,264.465 293.064 C 276.926 293.969,305.618 297.150,307.075 297.787 C 307.421 297.938,309.898 298.363,312.579 298.731 C 323.428 300.219,340.664 303.147,340.828 303.530 C 340.886 303.664,341.182 303.774,341.486 303.774 C 342.755 303.774,365.158 308.331,366.195 308.800 C 368.119 309.670,390.460 314.465,392.561 314.459 C 401.665 314.431,402.937 304.208,394.500 298.874 C 393.465 298.219,392.359 297.443,392.044 297.149 C 391.729 296.856,389.958 295.674,388.110 294.523 C 386.261 293.373,383.546 291.652,382.075 290.700 C 380.605 289.748,378.605 288.556,377.631 288.052 C 376.656 287.547,375.648 286.924,375.391 286.667 C 374.939 286.214,374.247 285.819,368.553 282.762 C 367.083 281.972,365.807 281.221,365.718 281.093 C 365.629 280.965,363.364 279.774,360.687 278.446 C 358.009 277.118,355.333 275.738,354.741 275.378 C 353.559 274.660,345.575 270.890,344.543 270.562 C 344.188 270.449,343.726 270.186,343.517 269.977 C 343.308 269.768,340.967 268.714,338.314 267.635 C 331.025 264.671,330.986 264.654,330.818 264.441 C 330.643 264.220,326.404 262.608,320.440 260.495 C 318.278 259.729,315.943 258.843,315.252 258.527 C 314.560 258.210,312.790 257.571,311.319 257.108 C 307.875 256.022,307.532 255.818,308.243 255.280 C 308.537 255.057,309.244 254.485,309.813 254.008 C 310.383 253.532,312.052 252.263,313.522 251.188 C 316.618 248.925,324.101 241.591,326.126 238.836 C 326.888 237.799,327.588 236.879,327.682 236.792 C 328.297 236.221,330.320 233.052,331.597 230.660 C 332.427 229.104,333.276 227.618,333.483 227.358 C 334.449 226.146,337.168 218.720,338.203 214.465 C 338.477 213.341,338.830 212.138,338.988 211.792 C 340.470 208.548,341.386 192.868,340.559 184.906 C 340.155 181.017,339.387 176.548,339.003 175.859 C 338.836 175.559,338.398 174.182,338.029 172.799 C 336.886 168.513,334.108 161.533,333.334 161.006 C 333.207 160.920,332.781 160.212,332.387 159.434 C 330.245 155.203,324.927 148.682,320.848 145.285 C 319.500 144.162,318.255 143.083,318.082 142.887 C 317.678 142.428,312.409 138.929,311.136 138.273 C 304.674 134.943,304.505 127.648,310.797 123.676 C 317.502 119.443,328.688 105.722,331.764 97.956 C 332.312 96.572,333.050 94.803,333.405 94.025 C 337.506 85.026,337.552 60.247,333.486 51.101 C 333.255 50.582,332.548 48.611,331.913 46.722 C 330.067 41.222,325.365 32.509,322.737 29.717 C 322.248 29.198,321.167 27.901,320.333 26.835 C 318.633 24.661,312.775 19.199,310.849 17.993 C 310.157 17.560,309.096 16.764,308.491 16.225 C 307.885 15.686,305.904 14.415,304.088 13.399 C 302.272 12.384,300.141 11.170,299.352 10.701 C 297.570 9.641,291.153 6.918,288.208 5.970 C 286.997 5.581,285.865 5.152,285.692 5.016 C 284.422 4.024,273.577 1.780,265.094 0.754 C 259.183 0.039,239.431 -0.138,234.025 0.475 " stroke="none" fill="#ffffff" fill-rule="evenodd"></path><path id="path4" d="M234.025 0.475 C 225.767 1.412,215.867 3.572,212.469 5.180 C 211.545 5.617,210.649 5.975,210.479 5.975 C 209.758 5.975,202.834 8.918,200.194 10.347 C 195.380 12.952,191.552 15.220,190.482 16.100 C 189.923 16.561,188.658 17.478,187.672 18.138 C 183.447 20.969,176.063 28.307,173.649 32.075 C 173.040 33.027,172.239 34.114,171.870 34.491 C 171.070 35.308,167.942 41.047,167.145 43.160 C 166.835 43.982,166.475 44.654,166.346 44.654 C 166.217 44.654,166.035 44.902,165.941 45.204 C 165.848 45.507,165.283 47.172,164.686 48.905 C 160.182 61.970,160.755 69.586,166.352 71.068 C 167.131 71.274,168.013 71.571,168.313 71.728 C 169.087 72.131,207.140 72.103,207.390 71.698 C 207.497 71.525,207.902 71.384,208.290 71.384 C 211.211 71.384,212.839 69.390,214.766 63.452 C 215.481 61.252,216.236 59.269,216.445 59.045 C 216.653 58.822,217.656 57.396,218.672 55.876 C 219.689 54.356,221.080 52.660,221.762 52.107 C 222.445 51.553,223.722 50.504,224.600 49.774 C 226.505 48.191,230.086 46.295,233.333 45.148 C 234.631 44.690,236.116 44.122,236.635 43.885 C 241.346 41.732,259.715 41.809,262.388 43.993 C 262.579 44.149,263.868 44.717,265.252 45.253 C 274.176 48.716,282.704 58.767,282.704 65.821 C 282.704 66.217,282.834 66.675,282.991 66.840 C 284.183 68.081,284.219 84.176,283.033 85.692 C 282.897 85.865,282.605 86.779,282.384 87.723 C 280.117 97.383,272.860 105.429,263.365 108.809 C 261.808 109.363,260.304 109.934,260.021 110.077 C 258.243 110.977,249.707 111.944,243.429 111.956 C 233.633 111.974,226.740 115.577,223.270 122.492 C 222.665 123.698,222.089 124.756,221.990 124.843 C 220.851 125.838,220.144 133.325,220.868 136.730 C 222.984 146.681,230.446 152.400,242.296 153.154 C 252.746 153.819,256.721 154.153,257.201 154.409 C 257.478 154.557,258.978 154.896,260.535 155.163 C 264.798 155.895,272.728 158.837,273.571 160.000 C 273.742 160.235,276.359 162.270,277.762 163.258 C 279.044 164.161,283.401 170.490,284.524 173.079 C 289.373 184.262,289.066 202.160,283.877 210.753 C 282.382 213.229,279.597 216.874,278.398 217.925 C 273.896 221.867,273.067 222.366,265.409 225.733 C 257.289 229.303,241.361 229.335,233.496 225.796 C 232.801 225.483,231.153 224.781,229.832 224.235 C 220.806 220.503,213.291 211.876,211.469 203.155 C 211.343 202.555,211.129 201.848,210.991 201.583 C 210.854 201.318,210.431 200.287,210.052 199.293 C 208.327 194.776,208.749 194.849,184.270 194.829 L 163.980 194.811 161.882 195.844 C 158.345 197.586,157.466 200.319,158.317 206.926 C 158.831 210.916,160.175 217.130,160.657 217.744 C 160.803 217.930,161.244 219.072,161.637 220.283 C 163.004 224.500,165.284 229.704,166.136 230.557 C 166.375 230.795,166.805 231.482,167.092 232.083 C 167.379 232.684,168.593 234.660,169.790 236.475 C 170.988 238.289,171.940 239.800,171.906 239.834 C 171.873 239.868,167.461 240.408,162.102 241.034 C 156.743 241.660,152.075 242.294,151.730 242.442 C 150.674 242.893,141.798 243.811,141.488 243.500 C 141.320 243.333,141.170 195.021,141.121 125.618 C 141.026 -7.886,141.339 5.979,138.357 3.087 C 135.955 0.758,133.408 0.379,129.065 1.704 C 125.444 2.809,120.026 4.723,119.657 5.027 C 119.483 5.171,118.420 5.596,117.296 5.971 C 111.487 7.910,104.207 10.493,103.920 10.716 C 103.742 10.856,100.275 12.123,96.216 13.532 C 92.157 14.941,88.695 16.202,88.522 16.335 C 88.349 16.469,87.500 16.821,86.635 17.119 C 85.770 17.416,82.587 18.511,79.561 19.550 C 76.534 20.590,73.987 21.544,73.900 21.669 C 73.813 21.794,70.487 23.001,66.509 24.351 C 62.531 25.702,58.987 26.986,58.634 27.204 C 58.280 27.423,56.342 28.170,54.325 28.864 C 45.571 31.875,45.916 30.963,45.914 51.122 C 45.912 69.391,46.205 70.849,50.226 72.532 C 52.164 73.344,58.134 72.819,59.591 71.709 C 59.764 71.577,63.656 70.362,68.239 69.009 C 72.822 67.656,76.619 66.434,76.677 66.293 C 76.735 66.153,76.965 66.038,77.189 66.038 C 77.413 66.038,78.922 65.634,80.543 65.140 C 84.717 63.869,85.419 63.766,85.994 64.341 C 86.428 64.774,86.478 74.829,86.478 160.739 L 86.478 256.653 85.299 257.830 C 84.420 258.707,83.439 259.231,81.447 259.887 C 77.440 261.207,69.362 264.204,69.182 264.437 C 69.096 264.549,66.761 265.546,63.994 266.651 C 61.226 267.757,57.618 269.335,55.975 270.158 C 54.332 270.981,51.219 272.508,49.057 273.551 C 43.598 276.186,34.817 280.769,34.608 281.093 C 34.512 281.241,33.797 281.684,33.019 282.078 C 30.871 283.166,25.650 286.205,25.472 286.472 C 25.385 286.602,23.899 287.521,22.170 288.515 C 20.440 289.510,17.635 291.236,15.935 292.351 C 14.236 293.466,11.787 295.004,10.493 295.769 C 9.200 296.534,7.928 297.373,7.666 297.635 C 7.405 297.896,6.246 298.665,5.089 299.343 C -1.544 303.235,-1.841 312.038,4.589 314.161 C 6.901 314.924,29.986 310.791,34.434 308.818 C 35.397 308.390,43.748 306.605,53.616 304.716 C 56.384 304.187,58.931 303.623,59.277 303.464 C 60.148 303.063,70.937 301.210,82.390 299.493 C 87.665 298.703,92.264 297.938,92.610 297.794 C 93.819 297.290,114.112 294.894,127.044 293.729 C 130.936 293.378,135.535 292.943,137.264 292.762 C 159.421 290.444,209.735 289.466,235.377 290.855 C 250.887 291.695,258.386 292.200,258.962 292.443 C 259.308 292.590,261.785 292.869,264.465 293.064 C 276.926 293.969,305.618 297.150,307.075 297.787 C 307.421 297.938,309.898 298.363,312.579 298.731 C 323.428 300.219,340.664 303.147,340.828 303.530 C 340.886 303.664,341.182 303.774,341.486 303.774 C 342.755 303.774,365.158 308.331,366.195 308.800 C 368.119 309.670,390.460 314.465,392.561 314.459 C 401.665 314.431,402.937 304.208,394.500 298.874 C 393.465 298.219,392.359 297.443,392.044 297.149 C 391.729 296.856,389.958 295.674,388.110 294.523 C 386.261 293.373,383.546 291.652,382.075 290.700 C 380.605 289.748,378.605 288.556,377.631 288.052 C 376.656 287.547,375.648 286.924,375.391 286.667 C 374.939 286.214,374.247 285.819,368.553 282.762 C 367.083 281.972,365.807 281.221,365.718 281.093 C 365.629 280.965,363.364 279.774,360.687 278.446 C 358.009 277.118,355.333 275.738,354.741 275.378 C 353.559 274.660,345.575 270.890,344.543 270.562 C 344.188 270.449,343.726 270.186,343.517 269.977 C 343.308 269.768,340.967 268.714,338.314 267.635 C 331.025 264.671,330.986 264.654,330.818 264.441 C 330.643 264.220,326.404 262.608,320.440 260.495 C 318.278 259.729,315.943 258.843,315.252 258.527 C 314.560 258.210,312.790 257.571,311.319 257.108 C 307.875 256.022,307.532 255.818,308.243 255.280 C 308.537 255.057,309.244 254.485,309.813 254.008 C 310.383 253.532,312.052 252.263,313.522 251.188 C 316.618 248.925,324.101 241.591,326.126 238.836 C 326.888 237.799,327.588 236.879,327.682 236.792 C 328.297 236.221,330.320 233.052,331.597 230.660 C 332.427 229.104,333.276 227.618,333.483 227.358 C 334.449 226.146,337.168 218.720,338.203 214.465 C 338.477 213.341,338.830 212.138,338.988 211.792 C 340.470 208.548,341.386 192.868,340.559 184.906 C 340.155 181.017,339.387 176.548,339.003 175.859 C 338.836 175.559,338.398 174.182,338.029 172.799 C 336.886 168.513,334.108 161.533,333.334 161.006 C 333.207 160.920,332.781 160.212,332.387 159.434 C 330.245 155.203,324.927 148.682,320.848 145.285 C 319.500 144.162,318.255 143.083,318.082 142.887 C 317.678 142.428,312.409 138.929,311.136 138.273 C 304.674 134.943,304.505 127.648,310.797 123.676 C 317.502 119.443,328.688 105.722,331.764 97.956 C 332.312 96.572,333.050 94.803,333.405 94.025 C 337.506 85.026,337.552 60.247,333.486 51.101 C 333.255 50.582,332.548 48.611,331.913 46.722 C 330.067 41.222,325.365 32.509,322.737 29.717 C 322.248 29.198,321.167 27.901,320.333 26.835 C 318.633 24.661,312.775 19.199,310.849 17.993 C 310.157 17.560,309.096 16.764,308.491 16.225 C 307.885 15.686,305.904 14.415,304.088 13.399 C 302.272 12.384,300.141 11.170,299.352 10.701 C 297.570 9.641,291.153 6.918,288.208 5.970 C 286.997 5.581,285.865 5.152,285.692 5.016 C 284.422 4.024,273.577 1.780,265.094 0.754 C 259.183 0.039,239.431 -0.138,234.025 0.475 " stroke="none" fill="#ffffff" fill-rule="evenodd"></path></g></svg>