<svg id="svg" version="1.1" width="400" height="315" viewBox="0 0 400 315" xmlns="http://www.w3.org/2000/svg" xmlns:xlink="http://www.w3.org/1999/xlink" ><g id="svgg"><path id="path0" d="M113.160 1.389 L 113.160 2.778 108.600 2.886 C 103.209 3.014,103.011 3.117,102.761 5.918 L 102.600 7.723 96.612 7.911 C 89.022 8.150,88.457 8.402,88.191 11.663 L 88.101 12.766 83.620 12.924 C 78.337 13.109,78.203 13.182,77.947 16.005 L 77.774 17.908 70.644 18.051 C 61.468 18.235,59.329 18.833,58.635 21.411 L 58.302 22.650 53.594 22.751 C 48.112 22.869,48.150 22.850,47.969 25.690 L 47.838 27.738 45.732 27.738 C 43.554 27.738,42.868 28.055,42.868 29.061 C 42.868 29.373,41.952 30.571,40.832 31.725 C 38.006 34.636,38.073 34.107,38.218 52.400 C 38.360 70.278,38.435 70.698,41.620 71.556 L 42.777 71.867 42.975 73.981 C 43.324 77.726,44.156 77.889,60.993 77.518 C 71.360 77.290,72.183 76.987,72.183 73.397 L 72.183 72.498 75.493 72.498 L 78.802 72.498 78.802 162.608 L 78.802 252.717 78.150 254.192 C 77.769 255.054,77.202 255.779,76.787 255.937 C 76.395 256.086,75.835 256.575,75.540 257.024 C 75.023 257.814,74.899 257.841,71.782 257.847 C 64.916 257.861,63.386 258.463,63.118 261.260 L 62.966 262.840 60.403 262.973 C 55.628 263.220,54.419 263.856,53.718 266.491 L 53.377 267.770 50.566 267.962 C 45.134 268.334,44.044 268.954,43.373 272.057 C 43.197 272.867,43.152 272.879,39.643 273.060 C 34.305 273.337,33.097 274.075,33.097 277.058 L 33.097 278.014 30.995 278.014 C 25.634 278.014,23.552 278.967,23.157 281.600 L 22.939 283.058 20.779 283.058 C 18.200 283.058,17.967 283.316,17.967 286.176 L 17.967 288.074 15.524 288.166 L 13.081 288.258 12.989 290.701 L 12.897 293.144 8.477 293.144 C 3.705 293.144,2.837 293.364,2.837 294.574 C 2.837 295.284,2.716 295.351,1.418 295.351 L 0.000 295.351 0.000 305.280 L 0.000 315.209 20.804 315.209 L 41.608 315.209 41.608 313.984 L 41.608 312.759 50.197 312.623 C 60.922 312.452,62.096 312.041,62.096 308.455 L 62.096 307.670 71.699 307.578 C 82.806 307.472,82.298 307.615,82.522 304.519 L 82.658 302.635 99.721 302.520 C 120.110 302.382,120.740 302.274,121.686 298.760 L 122.010 297.557 200.006 297.557 L 278.002 297.557 278.191 298.424 C 279.084 302.511,279.587 302.600,301.640 302.600 L 317.655 302.600 317.792 304.501 C 318.018 307.618,317.502 307.472,328.616 307.578 L 338.219 307.670 338.219 308.455 C 338.219 312.041,339.393 312.452,350.118 312.623 L 358.708 312.759 358.708 313.984 L 358.708 315.209 379.354 315.209 L 400.000 315.209 400.000 305.280 L 400.000 295.351 398.739 295.351 C 397.613 295.351,397.478 295.269,397.478 294.581 C 397.478 293.424,397.074 293.315,392.120 293.144 L 387.549 292.987 387.392 290.623 L 387.234 288.258 384.791 288.166 L 382.348 288.074 382.348 286.065 C 382.348 283.065,382.342 283.058,379.635 283.058 L 377.305 283.058 377.300 281.875 C 377.289 279.076,376.254 278.427,371.278 278.095 L 367.691 277.857 367.516 276.596 C 367.126 273.781,366.304 273.346,360.855 273.066 L 357.171 272.877 356.963 271.645 C 356.524 269.044,354.250 267.938,349.330 267.931 C 347.068 267.928,346.729 267.856,346.723 267.376 C 346.703 265.820,345.532 264.189,344.154 263.797 C 343.403 263.583,342.655 263.290,342.490 263.146 C 342.325 263.002,341.084 262.884,339.732 262.884 L 337.273 262.884 337.273 261.928 C 337.273 258.802,336.075 258.162,329.778 257.924 L 325.276 257.753 324.634 256.851 C 324.281 256.355,323.838 255.950,323.651 255.950 C 323.463 255.950,322.637 255.248,321.815 254.391 L 320.321 252.832 321.311 252.736 L 322.301 252.640 322.393 250.210 L 322.485 247.780 324.915 247.688 L 327.344 247.597 327.436 245.154 L 327.528 242.711 329.659 242.711 C 332.324 242.711,332.545 242.491,332.545 239.848 L 332.545 237.741 334.593 237.610 C 337.213 237.444,337.404 237.223,337.541 234.198 L 337.654 231.703 338.968 231.067 C 341.811 229.691,342.354 227.431,342.551 216.154 L 342.703 207.407 343.911 207.407 C 346.908 207.407,347.329 205.802,347.338 194.326 C 347.348 181.973,346.790 179.180,344.181 178.540 L 342.790 178.199 342.625 170.975 C 342.526 166.601,342.323 163.502,342.112 163.121 C 341.920 162.774,341.535 161.957,341.256 161.306 C 340.744 160.110,339.158 158.869,338.140 158.866 C 337.664 158.865,337.589 158.542,337.589 156.501 C 337.589 153.401,337.132 152.876,334.437 152.876 L 332.545 152.876 332.545 150.733 C 332.545 148.047,332.332 147.833,329.645 147.833 L 327.502 147.833 327.502 145.690 C 327.502 143.003,327.288 142.790,324.602 142.790 L 322.459 142.790 322.459 140.763 C 322.459 138.069,322.119 137.746,319.284 137.746 L 317.100 137.746 317.100 136.658 C 317.100 134.432,316.116 133.469,313.633 133.266 L 312.530 133.176 312.438 130.418 L 312.347 127.660 314.503 127.660 C 317.203 127.660,317.415 127.448,317.415 124.760 L 317.415 122.616 319.559 122.616 C 322.245 122.616,322.459 122.403,322.459 119.716 L 322.459 117.573 324.602 117.573 C 327.288 117.573,327.502 117.359,327.502 114.673 L 327.502 112.530 329.528 112.530 C 332.180 112.530,332.545 112.168,332.545 109.549 L 332.545 107.559 334.244 107.347 C 337.202 106.977,337.569 106.209,337.581 100.355 L 337.589 96.848 338.555 96.655 C 342.072 95.951,342.603 92.930,342.607 73.601 C 342.610 52.936,342.076 49.676,338.576 48.976 L 337.632 48.787 337.532 43.947 C 337.413 38.213,337.354 38.097,334.459 37.888 L 332.570 37.751 332.479 35.345 C 332.398 33.211,332.316 32.929,331.753 32.848 C 331.398 32.798,330.843 32.243,330.492 31.588 C 330.145 30.941,329.350 30.142,328.713 29.801 L 327.560 29.183 327.452 26.427 C 327.323 23.120,327.166 22.921,324.543 22.754 L 322.531 22.626 322.389 20.911 C 322.207 18.720,321.733 18.271,319.379 18.057 L 317.478 17.885 317.271 16.228 C 316.976 13.871,316.599 13.500,314.075 13.087 L 311.913 12.733 311.660 11.456 C 311.195 9.104,309.520 8.216,305.077 7.969 L 302.667 7.834 302.458 6.159 C 302.093 3.238,301.303 2.857,295.587 2.844 L 292.199 2.837 292.199 1.418 L 292.199 0.000 249.803 0.000 L 207.407 0.000 207.407 1.393 L 207.407 2.787 203.320 2.891 C 198.436 3.015,198.218 3.141,198.015 5.950 L 197.880 7.821 193.513 7.930 C 188.345 8.058,188.211 8.131,187.952 10.991 L 187.777 12.924 185.794 12.924 C 183.183 12.924,182.821 13.291,182.821 15.941 L 182.821 17.967 180.678 17.967 C 178.021 17.967,177.778 18.197,177.778 20.709 L 177.778 22.695 175.634 22.695 C 172.948 22.695,172.734 22.909,172.734 25.595 L 172.734 27.738 170.591 27.738 C 167.909 27.738,167.691 27.954,167.691 30.616 L 167.691 32.736 166.006 32.947 C 163.321 33.282,162.963 34.121,162.963 40.075 L 162.963 43.184 162.007 43.184 C 160.380 43.184,158.992 43.957,158.532 45.120 C 157.846 46.857,157.697 71.601,158.368 72.559 C 158.641 72.949,158.865 73.510,158.865 73.805 C 158.865 74.721,160.363 76.176,161.934 76.785 C 163.661 77.455,209.084 77.864,213.527 77.250 C 216.373 76.856,216.812 76.401,217.222 73.416 C 217.399 72.131,217.668 71.035,217.819 70.980 C 220.690 69.936,222.537 65.401,222.537 59.394 L 222.537 57.683 224.564 57.683 C 227.224 57.683,227.581 57.326,227.581 54.666 L 227.581 52.640 231.127 52.638 C 233.077 52.637,235.197 52.491,235.837 52.313 L 237.001 51.990 237.217 49.793 L 237.434 47.597 250.159 47.597 L 262.884 47.597 262.884 49.488 C 262.884 52.107,263.443 52.640,266.194 52.640 C 268.176 52.640,268.243 52.666,268.243 53.438 C 268.243 56.271,269.884 57.344,274.617 57.605 L 277.699 57.775 277.699 75.405 L 277.699 93.035 275.256 92.932 L 272.813 92.829 272.914 95.386 L 273.015 97.942 270.775 98.102 C 268.054 98.297,268.143 98.214,267.984 100.721 L 267.854 102.758 263.674 102.758 C 256.579 102.758,254.071 103.655,253.502 106.393 L 253.243 107.644 241.211 107.801 C 227.408 107.982,228.268 107.780,227.984 110.912 L 227.808 112.845 225.829 112.845 C 223.343 112.845,222.853 113.035,222.853 113.997 C 222.853 114.864,220.181 117.749,219.204 117.937 C 217.892 118.190,217.819 118.976,217.814 132.960 C 217.809 146.739,217.878 147.518,219.096 147.518 C 219.975 147.518,222.850 150.454,222.863 151.364 C 222.868 151.762,223.081 152.364,223.335 152.700 C 223.590 153.037,223.798 153.558,223.798 153.858 C 223.798 154.989,225.325 156.269,227.481 156.946 C 229.481 157.574,230.252 157.604,244.143 157.604 L 258.708 157.604 258.901 158.570 C 259.147 159.803,260.675 161.339,261.898 161.584 C 262.418 161.688,262.919 161.970,263.012 162.210 C 263.145 162.557,264.188 162.648,268.062 162.648 L 272.944 162.648 273.036 165.091 L 273.128 167.533 275.414 167.626 L 277.699 167.719 277.699 171.540 C 277.699 179.398,278.444 181.264,281.880 182.015 L 282.751 182.205 282.668 192.507 L 282.585 202.809 281.334 203.069 C 278.887 203.577,278.158 205.098,277.744 210.559 L 277.541 213.239 276.438 213.329 C 273.918 213.535,273.407 214.045,273.214 216.548 L 273.128 217.652 269.021 217.840 C 263.598 218.089,263.475 218.161,263.024 221.355 L 262.813 222.853 249.925 222.853 L 237.037 222.853 237.037 221.609 C 237.037 218.723,234.696 217.822,227.171 217.814 L 222.505 217.809 222.563 215.199 C 222.645 211.446,221.780 209.865,218.834 208.383 L 217.494 207.710 217.494 203.158 C 217.494 199.248,217.416 198.527,216.942 198.042 C 216.639 197.732,216.122 196.949,215.793 196.302 C 215.393 195.515,214.749 194.910,213.851 194.475 C 213.112 194.117,212.428 193.617,212.331 193.364 C 212.177 192.965,208.578 192.915,185.116 192.985 L 158.077 193.065 157.985 195.508 L 157.893 197.951 155.763 197.951 C 154.526 197.951,153.474 198.110,153.255 198.329 C 152.578 199.006,152.734 211.966,153.428 212.675 C 153.731 212.985,154.236 213.745,154.550 214.364 C 155.122 215.492,156.496 216.548,157.391 216.548 C 157.800 216.548,157.883 217.577,157.973 223.766 C 158.095 232.240,158.063 232.151,161.110 232.496 C 163.690 232.788,163.904 234.170,161.474 234.850 C 160.463 235.133,159.561 235.703,158.665 236.625 L 157.345 237.983 152.436 237.983 L 147.526 237.983 147.443 122.065 C 147.373 24.149,147.292 5.982,146.923 5.088 C 146.444 3.927,145.046 3.152,143.430 3.152 C 142.493 3.152,142.474 3.121,142.474 1.576 L 142.474 0.000 127.817 0.000 L 113.160 0.000 113.160 1.389 " stroke="none" fill="#ffffff" fill-rule="evenodd"></path><path id="path1" d="M113.160 1.389 L 113.160 2.778 108.600 2.886 C 103.209 3.014,103.011 3.117,102.761 5.918 L 102.600 7.723 96.612 7.911 C 89.022 8.150,88.457 8.402,88.191 11.663 L 88.101 12.766 83.620 12.924 C 78.337 13.109,78.203 13.182,77.947 16.005 L 77.774 17.908 70.644 18.051 C 61.468 18.235,59.329 18.833,58.635 21.411 L 58.302 22.650 53.594 22.751 C 48.112 22.869,48.150 22.850,47.969 25.690 L 47.838 27.738 45.732 27.738 C 43.554 27.738,42.868 28.055,42.868 29.061 C 42.868 29.373,41.952 30.571,40.832 31.725 C 38.006 34.636,38.073 34.107,38.218 52.400 C 38.360 70.278,38.435 70.698,41.620 71.556 L 42.777 71.867 42.975 73.981 C 43.324 77.726,44.156 77.889,60.993 77.518 C 71.360 77.290,72.183 76.987,72.183 73.397 L 72.183 72.498 75.493 72.498 L 78.802 72.498 78.802 162.608 L 78.802 252.717 78.150 254.192 C 77.769 255.054,77.202 255.779,76.787 255.937 C 76.395 256.086,75.835 256.575,75.540 257.024 C 75.023 257.814,74.899 257.841,71.782 257.847 C 64.916 257.861,63.386 258.463,63.118 261.260 L 62.966 262.840 60.403 262.973 C 55.628 263.220,54.419 263.856,53.718 266.491 L 53.377 267.770 50.566 267.962 C 45.134 268.334,44.044 268.954,43.373 272.057 C 43.197 272.867,43.152 272.879,39.643 273.060 C 34.305 273.337,33.097 274.075,33.097 277.058 L 33.097 278.014 30.995 278.014 C 25.634 278.014,23.552 278.967,23.157 281.600 L 22.939 283.058 20.779 283.058 C 18.200 283.058,17.967 283.316,17.967 286.176 L 17.967 288.074 15.524 288.166 L 13.081 288.258 12.989 290.701 L 12.897 293.144 8.477 293.144 C 3.705 293.144,2.837 293.364,2.837 294.574 C 2.837 295.284,2.716 295.351,1.418 295.351 L 0.000 295.351 0.000 305.280 L 0.000 315.209 20.804 315.209 L 41.608 315.209 41.608 313.984 L 41.608 312.759 50.197 312.623 C 60.922 312.452,62.096 312.041,62.096 308.455 L 62.096 307.670 71.699 307.578 C 82.806 307.472,82.298 307.615,82.522 304.519 L 82.658 302.635 99.721 302.520 C 120.110 302.382,120.740 302.274,121.686 298.760 L 122.010 297.557 200.006 297.557 L 278.002 297.557 278.191 298.424 C 279.084 302.511,279.587 302.600,301.640 302.600 L 317.655 302.600 317.792 304.501 C 318.018 307.618,317.502 307.472,328.616 307.578 L 338.219 307.670 338.219 308.455 C 338.219 312.041,339.393 312.452,350.118 312.623 L 358.708 312.759 358.708 313.984 L 358.708 315.209 379.354 315.209 L 400.000 315.209 400.000 305.280 L 400.000 295.351 398.739 295.351 C 397.613 295.351,397.478 295.269,397.478 294.581 C 397.478 293.424,397.074 293.315,392.120 293.144 L 387.549 292.987 387.392 290.623 L 387.234 288.258 384.791 288.166 L 382.348 288.074 382.348 286.065 C 382.348 283.065,382.342 283.058,379.635 283.058 L 377.305 283.058 377.300 281.875 C 377.289 279.076,376.254 278.427,371.278 278.095 L 367.691 277.857 367.516 276.596 C 367.126 273.781,366.304 273.346,360.855 273.066 L 357.171 272.877 356.963 271.645 C 356.524 269.044,354.250 267.938,349.330 267.931 C 347.068 267.928,346.729 267.856,346.723 267.376 C 346.703 265.820,345.532 264.189,344.154 263.797 C 343.403 263.583,342.655 263.290,342.490 263.146 C 342.325 263.002,341.084 262.884,339.732 262.884 L 337.273 262.884 337.273 261.928 C 337.273 258.802,336.075 258.162,329.778 257.924 L 325.276 257.753 324.634 256.851 C 324.281 256.355,323.838 255.950,323.651 255.950 C 323.463 255.950,322.637 255.248,321.815 254.391 L 320.321 252.832 321.311 252.736 L 322.301 252.640 322.393 250.210 L 322.485 247.780 324.915 247.688 L 327.344 247.597 327.436 245.154 L 327.528 242.711 329.659 242.711 C 332.324 242.711,332.545 242.491,332.545 239.848 L 332.545 237.741 334.593 237.610 C 337.213 237.444,337.404 237.223,337.541 234.198 L 337.654 231.703 338.968 231.067 C 341.811 229.691,342.354 227.431,342.551 216.154 L 342.703 207.407 343.911 207.407 C 346.908 207.407,347.329 205.802,347.338 194.326 C 347.348 181.973,346.790 179.180,344.181 178.540 L 342.790 178.199 342.625 170.975 C 342.526 166.601,342.323 163.502,342.112 163.121 C 341.920 162.774,341.535 161.957,341.256 161.306 C 340.744 160.110,339.158 158.869,338.140 158.866 C 337.664 158.865,337.589 158.542,337.589 156.501 C 337.589 153.401,337.132 152.876,334.437 152.876 L 332.545 152.876 332.545 150.733 C 332.545 148.047,332.332 147.833,329.645 147.833 L 327.502 147.833 327.502 145.690 C 327.502 143.003,327.288 142.790,324.602 142.790 L 322.459 142.790 322.459 140.763 C 322.459 138.069,322.119 137.746,319.284 137.746 L 317.100 137.746 317.100 136.658 C 317.100 134.432,316.116 133.469,313.633 133.266 L 312.530 133.176 312.438 130.418 L 312.347 127.660 314.503 127.660 C 317.203 127.660,317.415 127.448,317.415 124.760 L 317.415 122.616 319.559 122.616 C 322.245 122.616,322.459 122.403,322.459 119.716 L 322.459 117.573 324.602 117.573 C 327.288 117.573,327.502 117.359,327.502 114.673 L 327.502 112.530 329.528 112.530 C 332.180 112.530,332.545 112.168,332.545 109.549 L 332.545 107.559 334.244 107.347 C 337.202 106.977,337.569 106.209,337.581 100.355 L 337.589 96.848 338.555 96.655 C 342.072 95.951,342.603 92.930,342.607 73.601 C 342.610 52.936,342.076 49.676,338.576 48.976 L 337.632 48.787 337.532 43.947 C 337.413 38.213,337.354 38.097,334.459 37.888 L 332.570 37.751 332.479 35.345 C 332.398 33.211,332.316 32.929,331.753 32.848 C 331.398 32.798,330.843 32.243,330.492 31.588 C 330.145 30.941,329.350 30.142,328.713 29.801 L 327.560 29.183 327.452 26.427 C 327.323 23.120,327.166 22.921,324.543 22.754 L 322.531 22.626 322.389 20.911 C 322.207 18.720,321.733 18.271,319.379 18.057 L 317.478 17.885 317.271 16.228 C 316.976 13.871,316.599 13.500,314.075 13.087 L 311.913 12.733 311.660 11.456 C 311.195 9.104,309.520 8.216,305.077 7.969 L 302.667 7.834 302.458 6.159 C 302.093 3.238,301.303 2.857,295.587 2.844 L 292.199 2.837 292.199 1.418 L 292.199 0.000 249.803 0.000 L 207.407 0.000 207.407 1.393 L 207.407 2.787 203.320 2.891 C 198.436 3.015,198.218 3.141,198.015 5.950 L 197.880 7.821 193.513 7.930 C 188.345 8.058,188.211 8.131,187.952 10.991 L 187.777 12.924 185.794 12.924 C 183.183 12.924,182.821 13.291,182.821 15.941 L 182.821 17.967 180.678 17.967 C 178.021 17.967,177.778 18.197,177.778 20.709 L 177.778 22.695 175.634 22.695 C 172.948 22.695,172.734 22.909,172.734 25.595 L 172.734 27.738 170.591 27.738 C 167.909 27.738,167.691 27.954,167.691 30.616 L 167.691 32.736 166.006 32.947 C 163.321 33.282,162.963 34.121,162.963 40.075 L 162.963 43.184 162.007 43.184 C 160.380 43.184,158.992 43.957,158.532 45.120 C 157.846 46.857,157.697 71.601,158.368 72.559 C 158.641 72.949,158.865 73.510,158.865 73.805 C 158.865 74.721,160.363 76.176,161.934 76.785 C 163.661 77.455,209.084 77.864,213.527 77.250 C 216.373 76.856,216.812 76.401,217.222 73.416 C 217.399 72.131,217.668 71.035,217.819 70.980 C 220.690 69.936,222.537 65.401,222.537 59.394 L 222.537 57.683 224.564 57.683 C 227.224 57.683,227.581 57.326,227.581 54.666 L 227.581 52.640 231.127 52.638 C 233.077 52.637,235.197 52.491,235.837 52.313 L 237.001 51.990 237.217 49.793 L 237.434 47.597 250.159 47.597 L 262.884 47.597 262.884 49.488 C 262.884 52.107,263.443 52.640,266.194 52.640 C 268.176 52.640,268.243 52.666,268.243 53.438 C 268.243 56.271,269.884 57.344,274.617 57.605 L 277.699 57.775 277.699 75.405 L 277.699 93.035 275.256 92.932 L 272.813 92.829 272.914 95.386 L 273.015 97.942 270.775 98.102 C 268.054 98.297,268.143 98.214,267.984 100.721 L 267.854 102.758 263.674 102.758 C 256.579 102.758,254.071 103.655,253.502 106.393 L 253.243 107.644 241.211 107.801 C 227.408 107.982,228.268 107.780,227.984 110.912 L 227.808 112.845 225.829 112.845 C 223.343 112.845,222.853 113.035,222.853 113.997 C 222.853 114.864,220.181 117.749,219.204 117.937 C 217.892 118.190,217.819 118.976,217.814 132.960 C 217.809 146.739,217.878 147.518,219.096 147.518 C 219.975 147.518,222.850 150.454,222.863 151.364 C 222.868 151.762,223.081 152.364,223.335 152.700 C 223.590 153.037,223.798 153.558,223.798 153.858 C 223.798 154.989,225.325 156.269,227.481 156.946 C 229.481 157.574,230.252 157.604,244.143 157.604 L 258.708 157.604 258.901 158.570 C 259.147 159.803,260.675 161.339,261.898 161.584 C 262.418 161.688,262.919 161.970,263.012 162.210 C 263.145 162.557,264.188 162.648,268.062 162.648 L 272.944 162.648 273.036 165.091 L 273.128 167.533 275.414 167.626 L 277.699 167.719 277.699 171.540 C 277.699 179.398,278.444 181.264,281.880 182.015 L 282.751 182.205 282.668 192.507 L 282.585 202.809 281.334 203.069 C 278.887 203.577,278.158 205.098,277.744 210.559 L 277.541 213.239 276.438 213.329 C 273.918 213.535,273.407 214.045,273.214 216.548 L 273.128 217.652 269.021 217.840 C 263.598 218.089,263.475 218.161,263.024 221.355 L 262.813 222.853 249.925 222.853 L 237.037 222.853 237.037 221.609 C 237.037 218.723,234.696 217.822,227.171 217.814 L 222.505 217.809 222.563 215.199 C 222.645 211.446,221.780 209.865,218.834 208.383 L 217.494 207.710 217.494 203.158 C 217.494 199.248,217.416 198.527,216.942 198.042 C 216.639 197.732,216.122 196.949,215.793 196.302 C 215.393 195.515,214.749 194.910,213.851 194.475 C 213.112 194.117,212.428 193.617,212.331 193.364 C 212.177 192.965,208.578 192.915,185.116 192.985 L 158.077 193.065 157.985 195.508 L 157.893 197.951 155.763 197.951 C 154.526 197.951,153.474 198.110,153.255 198.329 C 152.578 199.006,152.734 211.966,153.428 212.675 C 153.731 212.985,154.236 213.745,154.550 214.364 C 155.122 215.492,156.496 216.548,157.391 216.548 C 157.800 216.548,157.883 217.577,157.973 223.766 C 158.095 232.240,158.063 232.151,161.110 232.496 C 163.690 232.788,163.904 234.170,161.474 234.850 C 160.463 235.133,159.561 235.703,158.665 236.625 L 157.345 237.983 152.436 237.983 L 147.526 237.983 147.443 122.065 C 147.373 24.149,147.292 5.982,146.923 5.088 C 146.444 3.927,145.046 3.152,143.430 3.152 C 142.493 3.152,142.474 3.121,142.474 1.576 L 142.474 0.000 127.817 0.000 L 113.160 0.000 113.160 1.389 " stroke="none" fill="#ffffff" fill-rule="evenodd"></path><path id="path2" d="M113.160 1.389 L 113.160 2.778 108.600 2.886 C 103.209 3.014,103.011 3.117,102.761 5.918 L 102.600 7.723 96.612 7.911 C 89.022 8.150,88.457 8.402,88.191 11.663 L 88.101 12.766 83.620 12.924 C 78.337 13.109,78.203 13.182,77.947 16.005 L 77.774 17.908 70.644 18.051 C 61.468 18.235,59.329 18.833,58.635 21.411 L 58.302 22.650 53.594 22.751 C 48.112 22.869,48.150 22.850,47.969 25.690 L 47.838 27.738 45.732 27.738 C 43.554 27.738,42.868 28.055,42.868 29.061 C 42.868 29.373,41.952 30.571,40.832 31.725 C 38.006 34.636,38.073 34.107,38.218 52.400 C 38.360 70.278,38.435 70.698,41.620 71.556 L 42.777 71.867 42.975 73.981 C 43.324 77.726,44.156 77.889,60.993 77.518 C 71.360 77.290,72.183 76.987,72.183 73.397 L 72.183 72.498 75.493 72.498 L 78.802 72.498 78.802 162.608 L 78.802 252.717 78.150 254.192 C 77.769 255.054,77.202 255.779,76.787 255.937 C 76.395 256.086,75.835 256.575,75.540 257.024 C 75.023 257.814,74.899 257.841,71.782 257.847 C 64.916 257.861,63.386 258.463,63.118 261.260 L 62.966 262.840 60.403 262.973 C 55.628 263.220,54.419 263.856,53.718 266.491 L 53.377 267.770 50.566 267.962 C 45.134 268.334,44.044 268.954,43.373 272.057 C 43.197 272.867,43.152 272.879,39.643 273.060 C 34.305 273.337,33.097 274.075,33.097 277.058 L 33.097 278.014 30.995 278.014 C 25.634 278.014,23.552 278.967,23.157 281.600 L 22.939 283.058 20.779 283.058 C 18.200 283.058,17.967 283.316,17.967 286.176 L 17.967 288.074 15.524 288.166 L 13.081 288.258 12.989 290.701 L 12.897 293.144 8.477 293.144 C 3.705 293.144,2.837 293.364,2.837 294.574 C 2.837 295.284,2.716 295.351,1.418 295.351 L 0.000 295.351 0.000 305.280 L 0.000 315.209 20.804 315.209 L 41.608 315.209 41.608 313.984 L 41.608 312.759 50.197 312.623 C 60.922 312.452,62.096 312.041,62.096 308.455 L 62.096 307.670 71.699 307.578 C 82.806 307.472,82.298 307.615,82.522 304.519 L 82.658 302.635 99.721 302.520 C 120.110 302.382,120.740 302.274,121.686 298.760 L 122.010 297.557 200.006 297.557 L 278.002 297.557 278.191 298.424 C 279.084 302.511,279.587 302.600,301.640 302.600 L 317.655 302.600 317.792 304.501 C 318.018 307.618,317.502 307.472,328.616 307.578 L 338.219 307.670 338.219 308.455 C 338.219 312.041,339.393 312.452,350.118 312.623 L 358.708 312.759 358.708 313.984 L 358.708 315.209 379.354 315.209 L 400.000 315.209 400.000 305.280 L 400.000 295.351 398.739 295.351 C 397.613 295.351,397.478 295.269,397.478 294.581 C 397.478 293.424,397.074 293.315,392.120 293.144 L 387.549 292.987 387.392 290.623 L 387.234 288.258 384.791 288.166 L 382.348 288.074 382.348 286.065 C 382.348 283.065,382.342 283.058,379.635 283.058 L 377.305 283.058 377.300 281.875 C 377.289 279.076,376.254 278.427,371.278 278.095 L 367.691 277.857 367.516 276.596 C 367.126 273.781,366.304 273.346,360.855 273.066 L 357.171 272.877 356.963 271.645 C 356.524 269.044,354.250 267.938,349.330 267.931 C 347.068 267.928,346.729 267.856,346.723 267.376 C 346.703 265.820,345.532 264.189,344.154 263.797 C 343.403 263.583,342.655 263.290,342.490 263.146 C 342.325 263.002,341.084 262.884,339.732 262.884 L 337.273 262.884 337.273 261.928 C 337.273 258.802,336.075 258.162,329.778 257.924 L 325.276 257.753 324.634 256.851 C 324.281 256.355,323.838 255.950,323.651 255.950 C 323.463 255.950,322.637 255.248,321.815 254.391 L 320.321 252.832 321.311 252.736 L 322.301 252.640 322.393 250.210 L 322.485 247.780 324.915 247.688 L 327.344 247.597 327.436 245.154 L 327.528 242.711 329.659 242.711 C 332.324 242.711,332.545 242.491,332.545 239.848 L 332.545 237.741 334.593 237.610 C 337.213 237.444,337.404 237.223,337.541 234.198 L 337.654 231.703 338.968 231.067 C 341.811 229.691,342.354 227.431,342.551 216.154 L 342.703 207.407 343.911 207.407 C 346.908 207.407,347.329 205.802,347.338 194.326 C 347.348 181.973,346.790 179.180,344.181 178.540 L 342.790 178.199 342.625 170.975 C 342.526 166.601,342.323 163.502,342.112 163.121 C 341.920 162.774,341.535 161.957,341.256 161.306 C 340.744 160.110,339.158 158.869,338.140 158.866 C 337.664 158.865,337.589 158.542,337.589 156.501 C 337.589 153.401,337.132 152.876,334.437 152.876 L 332.545 152.876 332.545 150.733 C 332.545 148.047,332.332 147.833,329.645 147.833 L 327.502 147.833 327.502 145.690 C 327.502 143.003,327.288 142.790,324.602 142.790 L 322.459 142.790 322.459 140.763 C 322.459 138.069,322.119 137.746,319.284 137.746 L 317.100 137.746 317.100 136.658 C 317.100 134.432,316.116 133.469,313.633 133.266 L 312.530 133.176 312.438 130.418 L 312.347 127.660 314.503 127.660 C 317.203 127.660,317.415 127.448,317.415 124.760 L 317.415 122.616 319.559 122.616 C 322.245 122.616,322.459 122.403,322.459 119.716 L 322.459 117.573 324.602 117.573 C 327.288 117.573,327.502 117.359,327.502 114.673 L 327.502 112.530 329.528 112.530 C 332.180 112.530,332.545 112.168,332.545 109.549 L 332.545 107.559 334.244 107.347 C 337.202 106.977,337.569 106.209,337.581 100.355 L 337.589 96.848 338.555 96.655 C 342.072 95.951,342.603 92.930,342.607 73.601 C 342.610 52.936,342.076 49.676,338.576 48.976 L 337.632 48.787 337.532 43.947 C 337.413 38.213,337.354 38.097,334.459 37.888 L 332.570 37.751 332.479 35.345 C 332.398 33.211,332.316 32.929,331.753 32.848 C 331.398 32.798,330.843 32.243,330.492 31.588 C 330.145 30.941,329.350 30.142,328.713 29.801 L 327.560 29.183 327.452 26.427 C 327.323 23.120,327.166 22.921,324.543 22.754 L 322.531 22.626 322.389 20.911 C 322.207 18.720,321.733 18.271,319.379 18.057 L 317.478 17.885 317.271 16.228 C 316.976 13.871,316.599 13.500,314.075 13.087 L 311.913 12.733 311.660 11.456 C 311.195 9.104,309.520 8.216,305.077 7.969 L 302.667 7.834 302.458 6.159 C 302.093 3.238,301.303 2.857,295.587 2.844 L 292.199 2.837 292.199 1.418 L 292.199 0.000 249.803 0.000 L 207.407 0.000 207.407 1.393 L 207.407 2.787 203.320 2.891 C 198.436 3.015,198.218 3.141,198.015 5.950 L 197.880 7.821 193.513 7.930 C 188.345 8.058,188.211 8.131,187.952 10.991 L 187.777 12.924 185.794 12.924 C 183.183 12.924,182.821 13.291,182.821 15.941 L 182.821 17.967 180.678 17.967 C 178.021 17.967,177.778 18.197,177.778 20.709 L 177.778 22.695 175.634 22.695 C 172.948 22.695,172.734 22.909,172.734 25.595 L 172.734 27.738 170.591 27.738 C 167.909 27.738,167.691 27.954,167.691 30.616 L 167.691 32.736 166.006 32.947 C 163.321 33.282,162.963 34.121,162.963 40.075 L 162.963 43.184 162.007 43.184 C 160.380 43.184,158.992 43.957,158.532 45.120 C 157.846 46.857,157.697 71.601,158.368 72.559 C 158.641 72.949,158.865 73.510,158.865 73.805 C 158.865 74.721,160.363 76.176,161.934 76.785 C 163.661 77.455,209.084 77.864,213.527 77.250 C 216.373 76.856,216.812 76.401,217.222 73.416 C 217.399 72.131,217.668 71.035,217.819 70.980 C 220.690 69.936,222.537 65.401,222.537 59.394 L 222.537 57.683 224.564 57.683 C 227.224 57.683,227.581 57.326,227.581 54.666 L 227.581 52.640 231.127 52.638 C 233.077 52.637,235.197 52.491,235.837 52.313 L 237.001 51.990 237.217 49.793 L 237.434 47.597 250.159 47.597 L 262.884 47.597 262.884 49.488 C 262.884 52.107,263.443 52.640,266.194 52.640 C 268.176 52.640,268.243 52.666,268.243 53.438 C 268.243 56.271,269.884 57.344,274.617 57.605 L 277.699 57.775 277.699 75.405 L 277.699 93.035 275.256 92.932 L 272.813 92.829 272.914 95.386 L 273.015 97.942 270.775 98.102 C 268.054 98.297,268.143 98.214,267.984 100.721 L 267.854 102.758 263.674 102.758 C 256.579 102.758,254.071 103.655,253.502 106.393 L 253.243 107.644 241.211 107.801 C 227.408 107.982,228.268 107.780,227.984 110.912 L 227.808 112.845 225.829 112.845 C 223.343 112.845,222.853 113.035,222.853 113.997 C 222.853 114.864,220.181 117.749,219.204 117.937 C 217.892 118.190,217.819 118.976,217.814 132.960 C 217.809 146.739,217.878 147.518,219.096 147.518 C 219.975 147.518,222.850 150.454,222.863 151.364 C 222.868 151.762,223.081 152.364,223.335 152.700 C 223.590 153.037,223.798 153.558,223.798 153.858 C 223.798 154.989,225.325 156.269,227.481 156.946 C 229.481 157.574,230.252 157.604,244.143 157.604 L 258.708 157.604 258.901 158.570 C 259.147 159.803,260.675 161.339,261.898 161.584 C 262.418 161.688,262.919 161.970,263.012 162.210 C 263.145 162.557,264.188 162.648,268.062 162.648 L 272.944 162.648 273.036 165.091 L 273.128 167.533 275.414 167.626 L 277.699 167.719 277.699 171.540 C 277.699 179.398,278.444 181.264,281.880 182.015 L 282.751 182.205 282.668 192.507 L 282.585 202.809 281.334 203.069 C 278.887 203.577,278.158 205.098,277.744 210.559 L 277.541 213.239 276.438 213.329 C 273.918 213.535,273.407 214.045,273.214 216.548 L 273.128 217.652 269.021 217.840 C 263.598 218.089,263.475 218.161,263.024 221.355 L 262.813 222.853 249.925 222.853 L 237.037 222.853 237.037 221.609 C 237.037 218.723,234.696 217.822,227.171 217.814 L 222.505 217.809 222.563 215.199 C 222.645 211.446,221.780 209.865,218.834 208.383 L 217.494 207.710 217.494 203.158 C 217.494 199.248,217.416 198.527,216.942 198.042 C 216.639 197.732,216.122 196.949,215.793 196.302 C 215.393 195.515,214.749 194.910,213.851 194.475 C 213.112 194.117,212.428 193.617,212.331 193.364 C 212.177 192.965,208.578 192.915,185.116 192.985 L 158.077 193.065 157.985 195.508 L 157.893 197.951 155.763 197.951 C 154.526 197.951,153.474 198.110,153.255 198.329 C 152.578 199.006,152.734 211.966,153.428 212.675 C 153.731 212.985,154.236 213.745,154.550 214.364 C 155.122 215.492,156.496 216.548,157.391 216.548 C 157.800 216.548,157.883 217.577,157.973 223.766 C 158.095 232.240,158.063 232.151,161.110 232.496 C 163.690 232.788,163.904 234.170,161.474 234.850 C 160.463 235.133,159.561 235.703,158.665 236.625 L 157.345 237.983 152.436 237.983 L 147.526 237.983 147.443 122.065 C 147.373 24.149,147.292 5.982,146.923 5.088 C 146.444 3.927,145.046 3.152,143.430 3.152 C 142.493 3.152,142.474 3.121,142.474 1.576 L 142.474 0.000 127.817 0.000 L 113.160 0.000 113.160 1.389 " stroke="none" fill="#ffffff" fill-rule="evenodd"></path><path id="path3" d="M113.160 1.389 L 113.160 2.778 108.600 2.886 C 103.209 3.014,103.011 3.117,102.761 5.918 L 102.600 7.723 96.612 7.911 C 89.022 8.150,88.457 8.402,88.191 11.663 L 88.101 12.766 83.620 12.924 C 78.337 13.109,78.203 13.182,77.947 16.005 L 77.774 17.908 70.644 18.051 C 61.468 18.235,59.329 18.833,58.635 21.411 L 58.302 22.650 53.594 22.751 C 48.112 22.869,48.150 22.850,47.969 25.690 L 47.838 27.738 45.732 27.738 C 43.554 27.738,42.868 28.055,42.868 29.061 C 42.868 29.373,41.952 30.571,40.832 31.725 C 38.006 34.636,38.073 34.107,38.218 52.400 C 38.360 70.278,38.435 70.698,41.620 71.556 L 42.777 71.867 42.975 73.981 C 43.324 77.726,44.156 77.889,60.993 77.518 C 71.360 77.290,72.183 76.987,72.183 73.397 L 72.183 72.498 75.493 72.498 L 78.802 72.498 78.802 162.608 L 78.802 252.717 78.150 254.192 C 77.769 255.054,77.202 255.779,76.787 255.937 C 76.395 256.086,75.835 256.575,75.540 257.024 C 75.023 257.814,74.899 257.841,71.782 257.847 C 64.916 257.861,63.386 258.463,63.118 261.260 L 62.966 262.840 60.403 262.973 C 55.628 263.220,54.419 263.856,53.718 266.491 L 53.377 267.770 50.566 267.962 C 45.134 268.334,44.044 268.954,43.373 272.057 C 43.197 272.867,43.152 272.879,39.643 273.060 C 34.305 273.337,33.097 274.075,33.097 277.058 L 33.097 278.014 30.995 278.014 C 25.634 278.014,23.552 278.967,23.157 281.600 L 22.939 283.058 20.779 283.058 C 18.200 283.058,17.967 283.316,17.967 286.176 L 17.967 288.074 15.524 288.166 L 13.081 288.258 12.989 290.701 L 12.897 293.144 8.477 293.144 C 3.705 293.144,2.837 293.364,2.837 294.574 C 2.837 295.284,2.716 295.351,1.418 295.351 L 0.000 295.351 0.000 305.280 L 0.000 315.209 20.804 315.209 L 41.608 315.209 41.608 313.984 L 41.608 312.759 50.197 312.623 C 60.922 312.452,62.096 312.041,62.096 308.455 L 62.096 307.670 71.699 307.578 C 82.806 307.472,82.298 307.615,82.522 304.519 L 82.658 302.635 99.721 302.520 C 120.110 302.382,120.740 302.274,121.686 298.760 L 122.010 297.557 200.006 297.557 L 278.002 297.557 278.191 298.424 C 279.084 302.511,279.587 302.600,301.640 302.600 L 317.655 302.600 317.792 304.501 C 318.018 307.618,317.502 307.472,328.616 307.578 L 338.219 307.670 338.219 308.455 C 338.219 312.041,339.393 312.452,350.118 312.623 L 358.708 312.759 358.708 313.984 L 358.708 315.209 379.354 315.209 L 400.000 315.209 400.000 305.280 L 400.000 295.351 398.739 295.351 C 397.613 295.351,397.478 295.269,397.478 294.581 C 397.478 293.424,397.074 293.315,392.120 293.144 L 387.549 292.987 387.392 290.623 L 387.234 288.258 384.791 288.166 L 382.348 288.074 382.348 286.065 C 382.348 283.065,382.342 283.058,379.635 283.058 L 377.305 283.058 377.300 281.875 C 377.289 279.076,376.254 278.427,371.278 278.095 L 367.691 277.857 367.516 276.596 C 367.126 273.781,366.304 273.346,360.855 273.066 L 357.171 272.877 356.963 271.645 C 356.524 269.044,354.250 267.938,349.330 267.931 C 347.068 267.928,346.729 267.856,346.723 267.376 C 346.703 265.820,345.532 264.189,344.154 263.797 C 343.403 263.583,342.655 263.290,342.490 263.146 C 342.325 263.002,341.084 262.884,339.732 262.884 L 337.273 262.884 337.273 261.928 C 337.273 258.802,336.075 258.162,329.778 257.924 L 325.276 257.753 324.634 256.851 C 324.281 256.355,323.838 255.950,323.651 255.950 C 323.463 255.950,322.637 255.248,321.815 254.391 L 320.321 252.832 321.311 252.736 L 322.301 252.640 322.393 250.210 L 322.485 247.780 324.915 247.688 L 327.344 247.597 327.436 245.154 L 327.528 242.711 329.659 242.711 C 332.324 242.711,332.545 242.491,332.545 239.848 L 332.545 237.741 334.593 237.610 C 337.213 237.444,337.404 237.223,337.541 234.198 L 337.654 231.703 338.968 231.067 C 341.811 229.691,342.354 227.431,342.551 216.154 L 342.703 207.407 343.911 207.407 C 346.908 207.407,347.329 205.802,347.338 194.326 C 347.348 181.973,346.790 179.180,344.181 178.540 L 342.790 178.199 342.625 170.975 C 342.526 166.601,342.323 163.502,342.112 163.121 C 341.920 162.774,341.535 161.957,341.256 161.306 C 340.744 160.110,339.158 158.869,338.140 158.866 C 337.664 158.865,337.589 158.542,337.589 156.501 C 337.589 153.401,337.132 152.876,334.437 152.876 L 332.545 152.876 332.545 150.733 C 332.545 148.047,332.332 147.833,329.645 147.833 L 327.502 147.833 327.502 145.690 C 327.502 143.003,327.288 142.790,324.602 142.790 L 322.459 142.790 322.459 140.763 C 322.459 138.069,322.119 137.746,319.284 137.746 L 317.100 137.746 317.100 136.658 C 317.100 134.432,316.116 133.469,313.633 133.266 L 312.530 133.176 312.438 130.418 L 312.347 127.660 314.503 127.660 C 317.203 127.660,317.415 127.448,317.415 124.760 L 317.415 122.616 319.559 122.616 C 322.245 122.616,322.459 122.403,322.459 119.716 L 322.459 117.573 324.602 117.573 C 327.288 117.573,327.502 117.359,327.502 114.673 L 327.502 112.530 329.528 112.530 C 332.180 112.530,332.545 112.168,332.545 109.549 L 332.545 107.559 334.244 107.347 C 337.202 106.977,337.569 106.209,337.581 100.355 L 337.589 96.848 338.555 96.655 C 342.072 95.951,342.603 92.930,342.607 73.601 C 342.610 52.936,342.076 49.676,338.576 48.976 L 337.632 48.787 337.532 43.947 C 337.413 38.213,337.354 38.097,334.459 37.888 L 332.570 37.751 332.479 35.345 C 332.398 33.211,332.316 32.929,331.753 32.848 C 331.398 32.798,330.843 32.243,330.492 31.588 C 330.145 30.941,329.350 30.142,328.713 29.801 L 327.560 29.183 327.452 26.427 C 327.323 23.120,327.166 22.921,324.543 22.754 L 322.531 22.626 322.389 20.911 C 322.207 18.720,321.733 18.271,319.379 18.057 L 317.478 17.885 317.271 16.228 C 316.976 13.871,316.599 13.500,314.075 13.087 L 311.913 12.733 311.660 11.456 C 311.195 9.104,309.520 8.216,305.077 7.969 L 302.667 7.834 302.458 6.159 C 302.093 3.238,301.303 2.857,295.587 2.844 L 292.199 2.837 292.199 1.418 L 292.199 0.000 249.803 0.000 L 207.407 0.000 207.407 1.393 L 207.407 2.787 203.320 2.891 C 198.436 3.015,198.218 3.141,198.015 5.950 L 197.880 7.821 193.513 7.930 C 188.345 8.058,188.211 8.131,187.952 10.991 L 187.777 12.924 185.794 12.924 C 183.183 12.924,182.821 13.291,182.821 15.941 L 182.821 17.967 180.678 17.967 C 178.021 17.967,177.778 18.197,177.778 20.709 L 177.778 22.695 175.634 22.695 C 172.948 22.695,172.734 22.909,172.734 25.595 L 172.734 27.738 170.591 27.738 C 167.909 27.738,167.691 27.954,167.691 30.616 L 167.691 32.736 166.006 32.947 C 163.321 33.282,162.963 34.121,162.963 40.075 L 162.963 43.184 162.007 43.184 C 160.380 43.184,158.992 43.957,158.532 45.120 C 157.846 46.857,157.697 71.601,158.368 72.559 C 158.641 72.949,158.865 73.510,158.865 73.805 C 158.865 74.721,160.363 76.176,161.934 76.785 C 163.661 77.455,209.084 77.864,213.527 77.250 C 216.373 76.856,216.812 76.401,217.222 73.416 C 217.399 72.131,217.668 71.035,217.819 70.980 C 220.690 69.936,222.537 65.401,222.537 59.394 L 222.537 57.683 224.564 57.683 C 227.224 57.683,227.581 57.326,227.581 54.666 L 227.581 52.640 231.127 52.638 C 233.077 52.637,235.197 52.491,235.837 52.313 L 237.001 51.990 237.217 49.793 L 237.434 47.597 250.159 47.597 L 262.884 47.597 262.884 49.488 C 262.884 52.107,263.443 52.640,266.194 52.640 C 268.176 52.640,268.243 52.666,268.243 53.438 C 268.243 56.271,269.884 57.344,274.617 57.605 L 277.699 57.775 277.699 75.405 L 277.699 93.035 275.256 92.932 L 272.813 92.829 272.914 95.386 L 273.015 97.942 270.775 98.102 C 268.054 98.297,268.143 98.214,267.984 100.721 L 267.854 102.758 263.674 102.758 C 256.579 102.758,254.071 103.655,253.502 106.393 L 253.243 107.644 241.211 107.801 C 227.408 107.982,228.268 107.780,227.984 110.912 L 227.808 112.845 225.829 112.845 C 223.343 112.845,222.853 113.035,222.853 113.997 C 222.853 114.864,220.181 117.749,219.204 117.937 C 217.892 118.190,217.819 118.976,217.814 132.960 C 217.809 146.739,217.878 147.518,219.096 147.518 C 219.975 147.518,222.850 150.454,222.863 151.364 C 222.868 151.762,223.081 152.364,223.335 152.700 C 223.590 153.037,223.798 153.558,223.798 153.858 C 223.798 154.989,225.325 156.269,227.481 156.946 C 229.481 157.574,230.252 157.604,244.143 157.604 L 258.708 157.604 258.901 158.570 C 259.147 159.803,260.675 161.339,261.898 161.584 C 262.418 161.688,262.919 161.970,263.012 162.210 C 263.145 162.557,264.188 162.648,268.062 162.648 L 272.944 162.648 273.036 165.091 L 273.128 167.533 275.414 167.626 L 277.699 167.719 277.699 171.540 C 277.699 179.398,278.444 181.264,281.880 182.015 L 282.751 182.205 282.668 192.507 L 282.585 202.809 281.334 203.069 C 278.887 203.577,278.158 205.098,277.744 210.559 L 277.541 213.239 276.438 213.329 C 273.918 213.535,273.407 214.045,273.214 216.548 L 273.128 217.652 269.021 217.840 C 263.598 218.089,263.475 218.161,263.024 221.355 L 262.813 222.853 249.925 222.853 L 237.037 222.853 237.037 221.609 C 237.037 218.723,234.696 217.822,227.171 217.814 L 222.505 217.809 222.563 215.199 C 222.645 211.446,221.780 209.865,218.834 208.383 L 217.494 207.710 217.494 203.158 C 217.494 199.248,217.416 198.527,216.942 198.042 C 216.639 197.732,216.122 196.949,215.793 196.302 C 215.393 195.515,214.749 194.910,213.851 194.475 C 213.112 194.117,212.428 193.617,212.331 193.364 C 212.177 192.965,208.578 192.915,185.116 192.985 L 158.077 193.065 157.985 195.508 L 157.893 197.951 155.763 197.951 C 154.526 197.951,153.474 198.110,153.255 198.329 C 152.578 199.006,152.734 211.966,153.428 212.675 C 153.731 212.985,154.236 213.745,154.550 214.364 C 155.122 215.492,156.496 216.548,157.391 216.548 C 157.800 216.548,157.883 217.577,157.973 223.766 C 158.095 232.240,158.063 232.151,161.110 232.496 C 163.690 232.788,163.904 234.170,161.474 234.850 C 160.463 235.133,159.561 235.703,158.665 236.625 L 157.345 237.983 152.436 237.983 L 147.526 237.983 147.443 122.065 C 147.373 24.149,147.292 5.982,146.923 5.088 C 146.444 3.927,145.046 3.152,143.430 3.152 C 142.493 3.152,142.474 3.121,142.474 1.576 L 142.474 0.000 127.817 0.000 L 113.160 0.000 113.160 1.389 " stroke="none" fill="#ffffff" fill-rule="evenodd"></path><path id="path4" d="M113.160 1.389 L 113.160 2.778 108.600 2.886 C 103.209 3.014,103.011 3.117,102.761 5.918 L 102.600 7.723 96.612 7.911 C 89.022 8.150,88.457 8.402,88.191 11.663 L 88.101 12.766 83.620 12.924 C 78.337 13.109,78.203 13.182,77.947 16.005 L 77.774 17.908 70.644 18.051 C 61.468 18.235,59.329 18.833,58.635 21.411 L 58.302 22.650 53.594 22.751 C 48.112 22.869,48.150 22.850,47.969 25.690 L 47.838 27.738 45.732 27.738 C 43.554 27.738,42.868 28.055,42.868 29.061 C 42.868 29.373,41.952 30.571,40.832 31.725 C 38.006 34.636,38.073 34.107,38.218 52.400 C 38.360 70.278,38.435 70.698,41.620 71.556 L 42.777 71.867 42.975 73.981 C 43.324 77.726,44.156 77.889,60.993 77.518 C 71.360 77.290,72.183 76.987,72.183 73.397 L 72.183 72.498 75.493 72.498 L 78.802 72.498 78.802 162.608 L 78.802 252.717 78.150 254.192 C 77.769 255.054,77.202 255.779,76.787 255.937 C 76.395 256.086,75.835 256.575,75.540 257.024 C 75.023 257.814,74.899 257.841,71.782 257.847 C 64.916 257.861,63.386 258.463,63.118 261.260 L 62.966 262.840 60.403 262.973 C 55.628 263.220,54.419 263.856,53.718 266.491 L 53.377 267.770 50.566 267.962 C 45.134 268.334,44.044 268.954,43.373 272.057 C 43.197 272.867,43.152 272.879,39.643 273.060 C 34.305 273.337,33.097 274.075,33.097 277.058 L 33.097 278.014 30.995 278.014 C 25.634 278.014,23.552 278.967,23.157 281.600 L 22.939 283.058 20.779 283.058 C 18.200 283.058,17.967 283.316,17.967 286.176 L 17.967 288.074 15.524 288.166 L 13.081 288.258 12.989 290.701 L 12.897 293.144 8.477 293.144 C 3.705 293.144,2.837 293.364,2.837 294.574 C 2.837 295.284,2.716 295.351,1.418 295.351 L 0.000 295.351 0.000 305.280 L 0.000 315.209 20.804 315.209 L 41.608 315.209 41.608 313.984 L 41.608 312.759 50.197 312.623 C 60.922 312.452,62.096 312.041,62.096 308.455 L 62.096 307.670 71.699 307.578 C 82.806 307.472,82.298 307.615,82.522 304.519 L 82.658 302.635 99.721 302.520 C 120.110 302.382,120.740 302.274,121.686 298.760 L 122.010 297.557 200.006 297.557 L 278.002 297.557 278.191 298.424 C 279.084 302.511,279.587 302.600,301.640 302.600 L 317.655 302.600 317.792 304.501 C 318.018 307.618,317.502 307.472,328.616 307.578 L 338.219 307.670 338.219 308.455 C 338.219 312.041,339.393 312.452,350.118 312.623 L 358.708 312.759 358.708 313.984 L 358.708 315.209 379.354 315.209 L 400.000 315.209 400.000 305.280 L 400.000 295.351 398.739 295.351 C 397.613 295.351,397.478 295.269,397.478 294.581 C 397.478 293.424,397.074 293.315,392.120 293.144 L 387.549 292.987 387.392 290.623 L 387.234 288.258 384.791 288.166 L 382.348 288.074 382.348 286.065 C 382.348 283.065,382.342 283.058,379.635 283.058 L 377.305 283.058 377.300 281.875 C 377.289 279.076,376.254 278.427,371.278 278.095 L 367.691 277.857 367.516 276.596 C 367.126 273.781,366.304 273.346,360.855 273.066 L 357.171 272.877 356.963 271.645 C 356.524 269.044,354.250 267.938,349.330 267.931 C 347.068 267.928,346.729 267.856,346.723 267.376 C 346.703 265.820,345.532 264.189,344.154 263.797 C 343.403 263.583,342.655 263.290,342.490 263.146 C 342.325 263.002,341.084 262.884,339.732 262.884 L 337.273 262.884 337.273 261.928 C 337.273 258.802,336.075 258.162,329.778 257.924 L 325.276 257.753 324.634 256.851 C 324.281 256.355,323.838 255.950,323.651 255.950 C 323.463 255.950,322.637 255.248,321.815 254.391 L 320.321 252.832 321.311 252.736 L 322.301 252.640 322.393 250.210 L 322.485 247.780 324.915 247.688 L 327.344 247.597 327.436 245.154 L 327.528 242.711 329.659 242.711 C 332.324 242.711,332.545 242.491,332.545 239.848 L 332.545 237.741 334.593 237.610 C 337.213 237.444,337.404 237.223,337.541 234.198 L 337.654 231.703 338.968 231.067 C 341.811 229.691,342.354 227.431,342.551 216.154 L 342.703 207.407 343.911 207.407 C 346.908 207.407,347.329 205.802,347.338 194.326 C 347.348 181.973,346.790 179.180,344.181 178.540 L 342.790 178.199 342.625 170.975 C 342.526 166.601,342.323 163.502,342.112 163.121 C 341.920 162.774,341.535 161.957,341.256 161.306 C 340.744 160.110,339.158 158.869,338.140 158.866 C 337.664 158.865,337.589 158.542,337.589 156.501 C 337.589 153.401,337.132 152.876,334.437 152.876 L 332.545 152.876 332.545 150.733 C 332.545 148.047,332.332 147.833,329.645 147.833 L 327.502 147.833 327.502 145.690 C 327.502 143.003,327.288 142.790,324.602 142.790 L 322.459 142.790 322.459 140.763 C 322.459 138.069,322.119 137.746,319.284 137.746 L 317.100 137.746 317.100 136.658 C 317.100 134.432,316.116 133.469,313.633 133.266 L 312.530 133.176 312.438 130.418 L 312.347 127.660 314.503 127.660 C 317.203 127.660,317.415 127.448,317.415 124.760 L 317.415 122.616 319.559 122.616 C 322.245 122.616,322.459 122.403,322.459 119.716 L 322.459 117.573 324.602 117.573 C 327.288 117.573,327.502 117.359,327.502 114.673 L 327.502 112.530 329.528 112.530 C 332.180 112.530,332.545 112.168,332.545 109.549 L 332.545 107.559 334.244 107.347 C 337.202 106.977,337.569 106.209,337.581 100.355 L 337.589 96.848 338.555 96.655 C 342.072 95.951,342.603 92.930,342.607 73.601 C 342.610 52.936,342.076 49.676,338.576 48.976 L 337.632 48.787 337.532 43.947 C 337.413 38.213,337.354 38.097,334.459 37.888 L 332.570 37.751 332.479 35.345 C 332.398 33.211,332.316 32.929,331.753 32.848 C 331.398 32.798,330.843 32.243,330.492 31.588 C 330.145 30.941,329.350 30.142,328.713 29.801 L 327.560 29.183 327.452 26.427 C 327.323 23.120,327.166 22.921,324.543 22.754 L 322.531 22.626 322.389 20.911 C 322.207 18.720,321.733 18.271,319.379 18.057 L 317.478 17.885 317.271 16.228 C 316.976 13.871,316.599 13.500,314.075 13.087 L 311.913 12.733 311.660 11.456 C 311.195 9.104,309.520 8.216,305.077 7.969 L 302.667 7.834 302.458 6.159 C 302.093 3.238,301.303 2.857,295.587 2.844 L 292.199 2.837 292.199 1.418 L 292.199 0.000 249.803 0.000 L 207.407 0.000 207.407 1.393 L 207.407 2.787 203.320 2.891 C 198.436 3.015,198.218 3.141,198.015 5.950 L 197.880 7.821 193.513 7.930 C 188.345 8.058,188.211 8.131,187.952 10.991 L 187.777 12.924 185.794 12.924 C 183.183 12.924,182.821 13.291,182.821 15.941 L 182.821 17.967 180.678 17.967 C 178.021 17.967,177.778 18.197,177.778 20.709 L 177.778 22.695 175.634 22.695 C 172.948 22.695,172.734 22.909,172.734 25.595 L 172.734 27.738 170.591 27.738 C 167.909 27.738,167.691 27.954,167.691 30.616 L 167.691 32.736 166.006 32.947 C 163.321 33.282,162.963 34.121,162.963 40.075 L 162.963 43.184 162.007 43.184 C 160.380 43.184,158.992 43.957,158.532 45.120 C 157.846 46.857,157.697 71.601,158.368 72.559 C 158.641 72.949,158.865 73.510,158.865 73.805 C 158.865 74.721,160.363 76.176,161.934 76.785 C 163.661 77.455,209.084 77.864,213.527 77.250 C 216.373 76.856,216.812 76.401,217.222 73.416 C 217.399 72.131,217.668 71.035,217.819 70.980 C 220.690 69.936,222.537 65.401,222.537 59.394 L 222.537 57.683 224.564 57.683 C 227.224 57.683,227.581 57.326,227.581 54.666 L 227.581 52.640 231.127 52.638 C 233.077 52.637,235.197 52.491,235.837 52.313 L 237.001 51.990 237.217 49.793 L 237.434 47.597 250.159 47.597 L 262.884 47.597 262.884 49.488 C 262.884 52.107,263.443 52.640,266.194 52.640 C 268.176 52.640,268.243 52.666,268.243 53.438 C 268.243 56.271,269.884 57.344,274.617 57.605 L 277.699 57.775 277.699 75.405 L 277.699 93.035 275.256 92.932 L 272.813 92.829 272.914 95.386 L 273.015 97.942 270.775 98.102 C 268.054 98.297,268.143 98.214,267.984 100.721 L 267.854 102.758 263.674 102.758 C 256.579 102.758,254.071 103.655,253.502 106.393 L 253.243 107.644 241.211 107.801 C 227.408 107.982,228.268 107.780,227.984 110.912 L 227.808 112.845 225.829 112.845 C 223.343 112.845,222.853 113.035,222.853 113.997 C 222.853 114.864,220.181 117.749,219.204 117.937 C 217.892 118.190,217.819 118.976,217.814 132.960 C 217.809 146.739,217.878 147.518,219.096 147.518 C 219.975 147.518,222.850 150.454,222.863 151.364 C 222.868 151.762,223.081 152.364,223.335 152.700 C 223.590 153.037,223.798 153.558,223.798 153.858 C 223.798 154.989,225.325 156.269,227.481 156.946 C 229.481 157.574,230.252 157.604,244.143 157.604 L 258.708 157.604 258.901 158.570 C 259.147 159.803,260.675 161.339,261.898 161.584 C 262.418 161.688,262.919 161.970,263.012 162.210 C 263.145 162.557,264.188 162.648,268.062 162.648 L 272.944 162.648 273.036 165.091 L 273.128 167.533 275.414 167.626 L 277.699 167.719 277.699 171.540 C 277.699 179.398,278.444 181.264,281.880 182.015 L 282.751 182.205 282.668 192.507 L 282.585 202.809 281.334 203.069 C 278.887 203.577,278.158 205.098,277.744 210.559 L 277.541 213.239 276.438 213.329 C 273.918 213.535,273.407 214.045,273.214 216.548 L 273.128 217.652 269.021 217.840 C 263.598 218.089,263.475 218.161,263.024 221.355 L 262.813 222.853 249.925 222.853 L 237.037 222.853 237.037 221.609 C 237.037 218.723,234.696 217.822,227.171 217.814 L 222.505 217.809 222.563 215.199 C 222.645 211.446,221.780 209.865,218.834 208.383 L 217.494 207.710 217.494 203.158 C 217.494 199.248,217.416 198.527,216.942 198.042 C 216.639 197.732,216.122 196.949,215.793 196.302 C 215.393 195.515,214.749 194.910,213.851 194.475 C 213.112 194.117,212.428 193.617,212.331 193.364 C 212.177 192.965,208.578 192.915,185.116 192.985 L 158.077 193.065 157.985 195.508 L 157.893 197.951 155.763 197.951 C 154.526 197.951,153.474 198.110,153.255 198.329 C 152.578 199.006,152.734 211.966,153.428 212.675 C 153.731 212.985,154.236 213.745,154.550 214.364 C 155.122 215.492,156.496 216.548,157.391 216.548 C 157.800 216.548,157.883 217.577,157.973 223.766 C 158.095 232.240,158.063 232.151,161.110 232.496 C 163.690 232.788,163.904 234.170,161.474 234.850 C 160.463 235.133,159.561 235.703,158.665 236.625 L 157.345 237.983 152.436 237.983 L 147.526 237.983 147.443 122.065 C 147.373 24.149,147.292 5.982,146.923 5.088 C 146.444 3.927,145.046 3.152,143.430 3.152 C 142.493 3.152,142.474 3.121,142.474 1.576 L 142.474 0.000 127.817 0.000 L 113.160 0.000 113.160 1.389 " stroke="none" fill="#ffffff" fill-rule="evenodd"></path></g></svg>